<svg width="729" height="26" viewBox="0 0 729 26" fill="none" xmlns="http://www.w3.org/2000/svg">
<path d="M1.5 14.2509C1.5 14.2509 16.4525 25.2015 24.0409 24.4644C31.6293 23.7272 42.2207 14.2509 42.2207 14.2509C42.2207 14.2509 53.1286 2.19553 61.2922 1.65114C70.3817 1.045 82.9414 14.2509 82.9414 14.2509C82.9414 14.2509 95.725 24.9777 104.608 24.4644C112.526 24.0068 123.662 14.2509 123.662 14.2509C123.662 14.2509 134.565 2.19892 142.725 1.65114C151.818 1.0408 164.383 14.2509 164.383 14.2509C164.383 14.2509 179.334 25.1603 189.506 24.4644C198.222 23.8681 210.73 14.2509 210.73 14.2509C210.73 14.2509 225.218 1.01102 235.42 1.65114C244.514 2.2217 257.078 14.2509 257.078 14.2509C257.078 14.2509 270.936 24.5364 280.468 24.4644C289.839 24.3936 303.425 14.2509 303.425 14.2509C303.425 14.2509 317.913 1.01102 328.115 1.65114C337.209 2.2217 349.773 14.2509 349.773 14.2509C349.773 14.2509 363.09 24.1906 372.297 24.4644C382.152 24.7574 396.553 14.2509 396.553 14.2509C396.553 14.2509 411.317 0.919577 421.676 1.65114C430.768 2.29316 443.334 14.2509 443.334 14.2509C443.334 14.2509 458.283 25.0718 468.457 24.4644C477.336 23.9343 490.115 14.2509 490.115 14.2509C490.115 14.2509 504.878 0.919577 515.238 1.65114C524.329 2.29316 536.895 14.2509 536.895 14.2509C536.895 14.2509 551.295 24.6052 561.152 24.4644C570.686 24.3282 584.546 14.2509 584.546 14.2509C584.546 14.2509 596.04 2.97451 604.467 1.65114C615.742 -0.119439 632.198 14.2509 632.198 14.2509C632.198 14.2509 646.051 24.3242 655.58 24.4644C665.441 24.6094 679.849 14.2509 679.849 14.2509C679.849 14.2509 692.412 2.43446 701.494 1.65114C712.174 0.729969 727.5 14.2509 727.5 14.2509" stroke="#C996CF" stroke-width="3" stroke-linecap="round"/>
</svg>
