<svg width="429" height="262" viewBox="0 0 429 262" fill="none" xmlns="http://www.w3.org/2000/svg">
<path d="M15.28 15.568H12.316V19H11.272V10.84H15.64V11.824H12.316V14.584H15.28V15.568ZM21.9023 18.028V19H17.3423V10.84H21.7823V11.824H18.3863V14.38H21.4223V15.364H18.3863V18.028H21.9023ZM28.0373 19L27.4253 17.104H24.3293L23.7173 19H22.6973L25.4093 10.84H26.3933L29.1173 19H28.0373ZM25.0853 14.752L24.6293 16.156H27.1133L26.6573 14.752L25.8773 12.232L25.0853 14.752ZM28.7419 11.824V10.84H34.5379V11.824H32.1619V19H31.1179V11.824H28.7419ZM35.7954 10.84H36.8754V16.072C36.8754 16.728 37.0114 17.24 37.2834 17.608C37.5634 17.976 37.9954 18.16 38.5794 18.16C39.1714 18.16 39.6034 17.976 39.8754 17.608C40.1474 17.24 40.2834 16.728 40.2834 16.072V10.84H41.3634V16.072C41.3634 17.024 41.1314 17.772 40.6674 18.316C40.2034 18.852 39.5074 19.12 38.5794 19.12C37.6434 19.12 36.9434 18.852 36.4794 18.316C36.0234 17.772 35.7954 17.024 35.7954 16.072V10.84ZM44.7887 15.808V19H43.7447V10.84H46.3007C47.0687 10.84 47.6607 11.044 48.0767 11.452C48.5007 11.852 48.7127 12.388 48.7127 13.06V13.576C48.7127 14.056 48.6007 14.472 48.3767 14.824C48.1607 15.176 47.8487 15.436 47.4407 15.604C47.7847 16.156 48.1047 16.716 48.4007 17.284C48.6967 17.852 48.9687 18.424 49.2167 19H48.0167C47.5607 17.912 47.0287 16.848 46.4207 15.808H44.7887ZM46.3007 11.8H44.7887V14.848H46.3007C46.7087 14.848 47.0327 14.736 47.2727 14.512C47.5127 14.28 47.6327 13.968 47.6327 13.576V13.06C47.6327 12.66 47.5127 12.352 47.2727 12.136C47.0327 11.912 46.7087 11.8 46.3007 11.8ZM55.5117 18.028V19H50.9517V10.84H55.3917V11.824H51.9957V14.38H55.0317V15.364H51.9957V18.028H55.5117Z" fill="black"/>
<path d="M146.272 197V188.84H148.816C149.6 188.84 150.196 189.048 150.604 189.464C151.02 189.872 151.228 190.42 151.228 191.108V191.744C151.228 192.432 151.02 192.984 150.604 193.4C150.196 193.816 149.6 194.024 148.816 194.024H147.316V197H146.272ZM148.816 189.824H147.316V193.052H148.816C149.248 193.052 149.576 192.936 149.8 192.704C150.032 192.472 150.148 192.152 150.148 191.744V191.108C150.148 190.708 150.032 190.396 149.8 190.172C149.576 189.94 149.248 189.824 148.816 189.824ZM157.15 197.06C156.782 197.06 156.486 196.976 156.262 196.808C156.046 196.64 155.894 196.432 155.806 196.184C155.414 196.528 155.058 196.772 154.738 196.916C154.418 197.052 154.098 197.12 153.778 197.12C153.258 197.12 152.874 196.952 152.626 196.616C152.378 196.28 152.254 195.868 152.254 195.38C152.254 195.052 152.314 194.76 152.434 194.504C152.554 194.248 152.758 194.048 153.046 193.904C153.334 193.752 153.722 193.676 154.21 193.676C154.426 193.676 154.662 193.692 154.918 193.724C155.174 193.748 155.434 193.78 155.698 193.82V193.016C155.698 192.568 155.598 192.264 155.398 192.104C155.206 191.936 154.922 191.852 154.546 191.852C154.034 191.852 153.462 191.992 152.83 192.272L152.518 191.456C152.886 191.288 153.238 191.16 153.574 191.072C153.91 190.984 154.25 190.94 154.594 190.94C155.154 190.94 155.582 191.032 155.878 191.216C156.174 191.4 156.378 191.644 156.49 191.948C156.602 192.252 156.658 192.584 156.658 192.944V195.512C156.658 195.696 156.694 195.852 156.766 195.98C156.838 196.1 156.982 196.16 157.198 196.16H157.33V197.06H157.15ZM153.226 195.368C153.226 195.64 153.29 195.86 153.418 196.028C153.546 196.196 153.73 196.28 153.97 196.28C154.178 196.28 154.418 196.22 154.69 196.1C154.962 195.972 155.298 195.72 155.698 195.344V194.588C155.154 194.5 154.674 194.456 154.258 194.456C153.89 194.456 153.626 194.532 153.466 194.684C153.306 194.836 153.226 195.064 153.226 195.368ZM161.844 191.924C161.484 191.924 161.132 191.988 160.788 192.116C160.452 192.244 160.092 192.488 159.708 192.848V197H158.724V191.06H159.66V192.02C160.068 191.62 160.44 191.34 160.776 191.18C161.12 191.02 161.476 190.94 161.844 190.94V191.924ZM166.394 196.784C165.946 197.008 165.47 197.12 164.966 197.12C164.534 197.12 164.194 197.032 163.946 196.856C163.706 196.68 163.534 196.444 163.43 196.148C163.334 195.852 163.286 195.524 163.286 195.164V191.924H162.254V191.06H163.286V189.404H164.27V191.06H166.214V191.924H164.27V195.128C164.27 195.544 164.338 195.832 164.474 195.992C164.618 196.144 164.838 196.22 165.134 196.22C165.278 196.22 165.426 196.204 165.578 196.172C165.738 196.132 165.91 196.068 166.094 195.98L166.394 196.784ZM168.733 189.608H167.629V188.504H168.733V189.608ZM168.673 197H167.689V191.06H168.673V197ZM175.138 197.06C174.77 197.06 174.474 196.976 174.25 196.808C174.034 196.64 173.882 196.432 173.794 196.184C173.402 196.528 173.046 196.772 172.726 196.916C172.406 197.052 172.086 197.12 171.766 197.12C171.246 197.12 170.862 196.952 170.614 196.616C170.366 196.28 170.242 195.868 170.242 195.38C170.242 195.052 170.302 194.76 170.422 194.504C170.542 194.248 170.746 194.048 171.034 193.904C171.322 193.752 171.71 193.676 172.198 193.676C172.414 193.676 172.65 193.692 172.906 193.724C173.162 193.748 173.422 193.78 173.686 193.82V193.016C173.686 192.568 173.586 192.264 173.386 192.104C173.194 191.936 172.91 191.852 172.534 191.852C172.022 191.852 171.45 191.992 170.818 192.272L170.506 191.456C170.874 191.288 171.226 191.16 171.562 191.072C171.898 190.984 172.238 190.94 172.582 190.94C173.142 190.94 173.57 191.032 173.866 191.216C174.162 191.4 174.366 191.644 174.478 191.948C174.59 192.252 174.646 192.584 174.646 192.944V195.512C174.646 195.696 174.682 195.852 174.754 195.98C174.826 196.1 174.97 196.16 175.186 196.16H175.318V197.06H175.138ZM171.214 195.368C171.214 195.64 171.278 195.86 171.406 196.028C171.534 196.196 171.718 196.28 171.958 196.28C172.166 196.28 172.406 196.22 172.678 196.1C172.95 195.972 173.286 195.72 173.686 195.344V194.588C173.142 194.5 172.662 194.456 172.246 194.456C171.878 194.456 171.614 194.532 171.454 194.684C171.294 194.836 171.214 195.064 171.214 195.368ZM176.7 195.56V188.12H177.684V195.512C177.684 195.728 177.716 195.892 177.78 196.004C177.852 196.108 177.992 196.16 178.2 196.16H178.392V197.06H178.116C177.588 197.06 177.22 196.92 177.012 196.64C176.804 196.36 176.7 196 176.7 195.56Z" fill="#C29E6A"/>
<path d="M215.272 250V241.84H217.816C218.6 241.84 219.196 242.048 219.604 242.464C220.02 242.872 220.228 243.42 220.228 244.108V244.744C220.228 245.432 220.02 245.984 219.604 246.4C219.196 246.816 218.6 247.024 217.816 247.024H216.316V250H215.272ZM217.816 242.824H216.316V246.052H217.816C218.248 246.052 218.576 245.936 218.8 245.704C219.032 245.472 219.148 245.152 219.148 244.744V244.108C219.148 243.708 219.032 243.396 218.8 243.172C218.576 242.94 218.248 242.824 217.816 242.824ZM226.15 250.06C225.782 250.06 225.486 249.976 225.262 249.808C225.046 249.64 224.894 249.432 224.806 249.184C224.414 249.528 224.058 249.772 223.738 249.916C223.418 250.052 223.098 250.12 222.778 250.12C222.258 250.12 221.874 249.952 221.626 249.616C221.378 249.28 221.254 248.868 221.254 248.38C221.254 248.052 221.314 247.76 221.434 247.504C221.554 247.248 221.758 247.048 222.046 246.904C222.334 246.752 222.722 246.676 223.21 246.676C223.426 246.676 223.662 246.692 223.918 246.724C224.174 246.748 224.434 246.78 224.698 246.82V246.016C224.698 245.568 224.598 245.264 224.398 245.104C224.206 244.936 223.922 244.852 223.546 244.852C223.034 244.852 222.462 244.992 221.83 245.272L221.518 244.456C221.886 244.288 222.238 244.16 222.574 244.072C222.91 243.984 223.25 243.94 223.594 243.94C224.154 243.94 224.582 244.032 224.878 244.216C225.174 244.4 225.378 244.644 225.49 244.948C225.602 245.252 225.658 245.584 225.658 245.944V248.512C225.658 248.696 225.694 248.852 225.766 248.98C225.838 249.1 225.982 249.16 226.198 249.16H226.33V250.06H226.15ZM222.226 248.368C222.226 248.64 222.29 248.86 222.418 249.028C222.546 249.196 222.73 249.28 222.97 249.28C223.178 249.28 223.418 249.22 223.69 249.1C223.962 248.972 224.298 248.72 224.698 248.344V247.588C224.154 247.5 223.674 247.456 223.258 247.456C222.89 247.456 222.626 247.532 222.466 247.684C222.306 247.836 222.226 248.064 222.226 248.368ZM230.844 244.924C230.484 244.924 230.132 244.988 229.788 245.116C229.452 245.244 229.092 245.488 228.708 245.848V250H227.724V244.06H228.66V245.02C229.068 244.62 229.44 244.34 229.776 244.18C230.12 244.02 230.476 243.94 230.844 243.94V244.924ZM235.394 249.784C234.946 250.008 234.47 250.12 233.966 250.12C233.534 250.12 233.194 250.032 232.946 249.856C232.706 249.68 232.534 249.444 232.43 249.148C232.334 248.852 232.286 248.524 232.286 248.164V244.924H231.254V244.06H232.286V242.404H233.27V244.06H235.214V244.924H233.27V248.128C233.27 248.544 233.338 248.832 233.474 248.992C233.618 249.144 233.838 249.22 234.134 249.22C234.278 249.22 234.426 249.204 234.578 249.172C234.738 249.132 234.91 249.068 235.094 248.98L235.394 249.784ZM237.733 242.608H236.629V241.504H237.733V242.608ZM237.673 250H236.689V244.06H237.673V250ZM244.138 250.06C243.77 250.06 243.474 249.976 243.25 249.808C243.034 249.64 242.882 249.432 242.794 249.184C242.402 249.528 242.046 249.772 241.726 249.916C241.406 250.052 241.086 250.12 240.766 250.12C240.246 250.12 239.862 249.952 239.614 249.616C239.366 249.28 239.242 248.868 239.242 248.38C239.242 248.052 239.302 247.76 239.422 247.504C239.542 247.248 239.746 247.048 240.034 246.904C240.322 246.752 240.71 246.676 241.198 246.676C241.414 246.676 241.65 246.692 241.906 246.724C242.162 246.748 242.422 246.78 242.686 246.82V246.016C242.686 245.568 242.586 245.264 242.386 245.104C242.194 244.936 241.91 244.852 241.534 244.852C241.022 244.852 240.45 244.992 239.818 245.272L239.506 244.456C239.874 244.288 240.226 244.16 240.562 244.072C240.898 243.984 241.238 243.94 241.582 243.94C242.142 243.94 242.57 244.032 242.866 244.216C243.162 244.4 243.366 244.644 243.478 244.948C243.59 245.252 243.646 245.584 243.646 245.944V248.512C243.646 248.696 243.682 248.852 243.754 248.98C243.826 249.1 243.97 249.16 244.186 249.16H244.318V250.06H244.138ZM240.214 248.368C240.214 248.64 240.278 248.86 240.406 249.028C240.534 249.196 240.718 249.28 240.958 249.28C241.166 249.28 241.406 249.22 241.678 249.1C241.95 248.972 242.286 248.72 242.686 248.344V247.588C242.142 247.5 241.662 247.456 241.246 247.456C240.878 247.456 240.614 247.532 240.454 247.684C240.294 247.836 240.214 248.064 240.214 248.368ZM245.7 248.56V241.12H246.684V248.512C246.684 248.728 246.716 248.892 246.78 249.004C246.852 249.108 246.992 249.16 247.2 249.16H247.392V250.06H247.116C246.588 250.06 246.22 249.92 246.012 249.64C245.804 249.36 245.7 249 245.7 248.56Z" fill="#C29E6A"/>
<path d="M300.272 250V241.84H302.816C303.6 241.84 304.196 242.048 304.604 242.464C305.02 242.872 305.228 243.42 305.228 244.108V244.744C305.228 245.432 305.02 245.984 304.604 246.4C304.196 246.816 303.6 247.024 302.816 247.024H301.316V250H300.272ZM302.816 242.824H301.316V246.052H302.816C303.248 246.052 303.576 245.936 303.8 245.704C304.032 245.472 304.148 245.152 304.148 244.744V244.108C304.148 243.708 304.032 243.396 303.8 243.172C303.576 242.94 303.248 242.824 302.816 242.824ZM311.15 250.06C310.782 250.06 310.486 249.976 310.262 249.808C310.046 249.64 309.894 249.432 309.806 249.184C309.414 249.528 309.058 249.772 308.738 249.916C308.418 250.052 308.098 250.12 307.778 250.12C307.258 250.12 306.874 249.952 306.626 249.616C306.378 249.28 306.254 248.868 306.254 248.38C306.254 248.052 306.314 247.76 306.434 247.504C306.554 247.248 306.758 247.048 307.046 246.904C307.334 246.752 307.722 246.676 308.21 246.676C308.426 246.676 308.662 246.692 308.918 246.724C309.174 246.748 309.434 246.78 309.698 246.82V246.016C309.698 245.568 309.598 245.264 309.398 245.104C309.206 244.936 308.922 244.852 308.546 244.852C308.034 244.852 307.462 244.992 306.83 245.272L306.518 244.456C306.886 244.288 307.238 244.16 307.574 244.072C307.91 243.984 308.25 243.94 308.594 243.94C309.154 243.94 309.582 244.032 309.878 244.216C310.174 244.4 310.378 244.644 310.49 244.948C310.602 245.252 310.658 245.584 310.658 245.944V248.512C310.658 248.696 310.694 248.852 310.766 248.98C310.838 249.1 310.982 249.16 311.198 249.16H311.33V250.06H311.15ZM307.226 248.368C307.226 248.64 307.29 248.86 307.418 249.028C307.546 249.196 307.73 249.28 307.97 249.28C308.178 249.28 308.418 249.22 308.69 249.1C308.962 248.972 309.298 248.72 309.698 248.344V247.588C309.154 247.5 308.674 247.456 308.258 247.456C307.89 247.456 307.626 247.532 307.466 247.684C307.306 247.836 307.226 248.064 307.226 248.368ZM315.844 244.924C315.484 244.924 315.132 244.988 314.788 245.116C314.452 245.244 314.092 245.488 313.708 245.848V250H312.724V244.06H313.66V245.02C314.068 244.62 314.44 244.34 314.776 244.18C315.12 244.02 315.476 243.94 315.844 243.94V244.924ZM320.394 249.784C319.946 250.008 319.47 250.12 318.966 250.12C318.534 250.12 318.194 250.032 317.946 249.856C317.706 249.68 317.534 249.444 317.43 249.148C317.334 248.852 317.286 248.524 317.286 248.164V244.924H316.254V244.06H317.286V242.404H318.27V244.06H320.214V244.924H318.27V248.128C318.27 248.544 318.338 248.832 318.474 248.992C318.618 249.144 318.838 249.22 319.134 249.22C319.278 249.22 319.426 249.204 319.578 249.172C319.738 249.132 319.91 249.068 320.094 248.98L320.394 249.784ZM322.733 242.608H321.629V241.504H322.733V242.608ZM322.673 250H321.689V244.06H322.673V250ZM329.138 250.06C328.77 250.06 328.474 249.976 328.25 249.808C328.034 249.64 327.882 249.432 327.794 249.184C327.402 249.528 327.046 249.772 326.726 249.916C326.406 250.052 326.086 250.12 325.766 250.12C325.246 250.12 324.862 249.952 324.614 249.616C324.366 249.28 324.242 248.868 324.242 248.38C324.242 248.052 324.302 247.76 324.422 247.504C324.542 247.248 324.746 247.048 325.034 246.904C325.322 246.752 325.71 246.676 326.198 246.676C326.414 246.676 326.65 246.692 326.906 246.724C327.162 246.748 327.422 246.78 327.686 246.82V246.016C327.686 245.568 327.586 245.264 327.386 245.104C327.194 244.936 326.91 244.852 326.534 244.852C326.022 244.852 325.45 244.992 324.818 245.272L324.506 244.456C324.874 244.288 325.226 244.16 325.562 244.072C325.898 243.984 326.238 243.94 326.582 243.94C327.142 243.94 327.57 244.032 327.866 244.216C328.162 244.4 328.366 244.644 328.478 244.948C328.59 245.252 328.646 245.584 328.646 245.944V248.512C328.646 248.696 328.682 248.852 328.754 248.98C328.826 249.1 328.97 249.16 329.186 249.16H329.318V250.06H329.138ZM325.214 248.368C325.214 248.64 325.278 248.86 325.406 249.028C325.534 249.196 325.718 249.28 325.958 249.28C326.166 249.28 326.406 249.22 326.678 249.1C326.95 248.972 327.286 248.72 327.686 248.344V247.588C327.142 247.5 326.662 247.456 326.246 247.456C325.878 247.456 325.614 247.532 325.454 247.684C325.294 247.836 325.214 248.064 325.214 248.368ZM330.7 248.56V241.12H331.684V248.512C331.684 248.728 331.716 248.892 331.78 249.004C331.852 249.108 331.992 249.16 332.2 249.16H332.392V250.06H332.116C331.588 250.06 331.22 249.92 331.012 249.64C330.804 249.36 330.7 249 330.7 248.56Z" fill="#C29E6A"/>
<path d="M300.272 195V186.84H302.816C303.6 186.84 304.196 187.048 304.604 187.464C305.02 187.872 305.228 188.42 305.228 189.108V189.744C305.228 190.432 305.02 190.984 304.604 191.4C304.196 191.816 303.6 192.024 302.816 192.024H301.316V195H300.272ZM302.816 187.824H301.316V191.052H302.816C303.248 191.052 303.576 190.936 303.8 190.704C304.032 190.472 304.148 190.152 304.148 189.744V189.108C304.148 188.708 304.032 188.396 303.8 188.172C303.576 187.94 303.248 187.824 302.816 187.824ZM311.15 195.06C310.782 195.06 310.486 194.976 310.262 194.808C310.046 194.64 309.894 194.432 309.806 194.184C309.414 194.528 309.058 194.772 308.738 194.916C308.418 195.052 308.098 195.12 307.778 195.12C307.258 195.12 306.874 194.952 306.626 194.616C306.378 194.28 306.254 193.868 306.254 193.38C306.254 193.052 306.314 192.76 306.434 192.504C306.554 192.248 306.758 192.048 307.046 191.904C307.334 191.752 307.722 191.676 308.21 191.676C308.426 191.676 308.662 191.692 308.918 191.724C309.174 191.748 309.434 191.78 309.698 191.82V191.016C309.698 190.568 309.598 190.264 309.398 190.104C309.206 189.936 308.922 189.852 308.546 189.852C308.034 189.852 307.462 189.992 306.83 190.272L306.518 189.456C306.886 189.288 307.238 189.16 307.574 189.072C307.91 188.984 308.25 188.94 308.594 188.94C309.154 188.94 309.582 189.032 309.878 189.216C310.174 189.4 310.378 189.644 310.49 189.948C310.602 190.252 310.658 190.584 310.658 190.944V193.512C310.658 193.696 310.694 193.852 310.766 193.98C310.838 194.1 310.982 194.16 311.198 194.16H311.33V195.06H311.15ZM307.226 193.368C307.226 193.64 307.29 193.86 307.418 194.028C307.546 194.196 307.73 194.28 307.97 194.28C308.178 194.28 308.418 194.22 308.69 194.1C308.962 193.972 309.298 193.72 309.698 193.344V192.588C309.154 192.5 308.674 192.456 308.258 192.456C307.89 192.456 307.626 192.532 307.466 192.684C307.306 192.836 307.226 193.064 307.226 193.368ZM315.844 189.924C315.484 189.924 315.132 189.988 314.788 190.116C314.452 190.244 314.092 190.488 313.708 190.848V195H312.724V189.06H313.66V190.02C314.068 189.62 314.44 189.34 314.776 189.18C315.12 189.02 315.476 188.94 315.844 188.94V189.924ZM320.394 194.784C319.946 195.008 319.47 195.12 318.966 195.12C318.534 195.12 318.194 195.032 317.946 194.856C317.706 194.68 317.534 194.444 317.43 194.148C317.334 193.852 317.286 193.524 317.286 193.164V189.924H316.254V189.06H317.286V187.404H318.27V189.06H320.214V189.924H318.27V193.128C318.27 193.544 318.338 193.832 318.474 193.992C318.618 194.144 318.838 194.22 319.134 194.22C319.278 194.22 319.426 194.204 319.578 194.172C319.738 194.132 319.91 194.068 320.094 193.98L320.394 194.784ZM322.733 187.608H321.629V186.504H322.733V187.608ZM322.673 195H321.689V189.06H322.673V195ZM329.138 195.06C328.77 195.06 328.474 194.976 328.25 194.808C328.034 194.64 327.882 194.432 327.794 194.184C327.402 194.528 327.046 194.772 326.726 194.916C326.406 195.052 326.086 195.12 325.766 195.12C325.246 195.12 324.862 194.952 324.614 194.616C324.366 194.28 324.242 193.868 324.242 193.38C324.242 193.052 324.302 192.76 324.422 192.504C324.542 192.248 324.746 192.048 325.034 191.904C325.322 191.752 325.71 191.676 326.198 191.676C326.414 191.676 326.65 191.692 326.906 191.724C327.162 191.748 327.422 191.78 327.686 191.82V191.016C327.686 190.568 327.586 190.264 327.386 190.104C327.194 189.936 326.91 189.852 326.534 189.852C326.022 189.852 325.45 189.992 324.818 190.272L324.506 189.456C324.874 189.288 325.226 189.16 325.562 189.072C325.898 188.984 326.238 188.94 326.582 188.94C327.142 188.94 327.57 189.032 327.866 189.216C328.162 189.4 328.366 189.644 328.478 189.948C328.59 190.252 328.646 190.584 328.646 190.944V193.512C328.646 193.696 328.682 193.852 328.754 193.98C328.826 194.1 328.97 194.16 329.186 194.16H329.318V195.06H329.138ZM325.214 193.368C325.214 193.64 325.278 193.86 325.406 194.028C325.534 194.196 325.718 194.28 325.958 194.28C326.166 194.28 326.406 194.22 326.678 194.1C326.95 193.972 327.286 193.72 327.686 193.344V192.588C327.142 192.5 326.662 192.456 326.246 192.456C325.878 192.456 325.614 192.532 325.454 192.684C325.294 192.836 325.214 193.064 325.214 193.368ZM330.7 193.56V186.12H331.684V193.512C331.684 193.728 331.716 193.892 331.78 194.004C331.852 194.108 331.992 194.16 332.2 194.16H332.392V195.06H332.116C331.588 195.06 331.22 194.92 331.012 194.64C330.804 194.36 330.7 194 330.7 193.56Z" fill="#C29E6A"/>
<path d="M6.272 63V54.84H8.804C9.74 54.84 10.46 55.124 10.964 55.692C11.468 56.252 11.72 57.028 11.72 58.02V59.808C11.72 60.808 11.468 61.592 10.964 62.16C10.46 62.72 9.74 63 8.804 63H6.272ZM8.78 55.824H7.316V62.028H8.78C10.02 62.028 10.64 61.288 10.64 59.808V58.02C10.64 56.556 10.02 55.824 8.78 55.824ZM18.0406 63.06C17.6726 63.06 17.3766 62.976 17.1526 62.808C16.9366 62.64 16.7846 62.432 16.6966 62.184C16.3046 62.528 15.9486 62.772 15.6286 62.916C15.3086 63.052 14.9886 63.12 14.6686 63.12C14.1486 63.12 13.7646 62.952 13.5166 62.616C13.2686 62.28 13.1446 61.868 13.1446 61.38C13.1446 61.052 13.2046 60.76 13.3246 60.504C13.4446 60.248 13.6486 60.048 13.9366 59.904C14.2246 59.752 14.6126 59.676 15.1006 59.676C15.3166 59.676 15.5526 59.692 15.8086 59.724C16.0646 59.748 16.3246 59.78 16.5886 59.82V59.016C16.5886 58.568 16.4886 58.264 16.2886 58.104C16.0966 57.936 15.8126 57.852 15.4366 57.852C14.9246 57.852 14.3526 57.992 13.7206 58.272L13.4086 57.456C13.7766 57.288 14.1286 57.16 14.4646 57.072C14.8006 56.984 15.1406 56.94 15.4846 56.94C16.0446 56.94 16.4726 57.032 16.7686 57.216C17.0646 57.4 17.2686 57.644 17.3806 57.948C17.4926 58.252 17.5486 58.584 17.5486 58.944V61.512C17.5486 61.696 17.5846 61.852 17.6566 61.98C17.7286 62.1 17.8726 62.16 18.0886 62.16H18.2206V63.06H18.0406ZM14.1166 61.368C14.1166 61.64 14.1806 61.86 14.3086 62.028C14.4366 62.196 14.6206 62.28 14.8606 62.28C15.0686 62.28 15.3086 62.22 15.5806 62.1C15.8526 61.972 16.1886 61.72 16.5886 61.344V60.588C16.0446 60.5 15.5646 60.456 15.1486 60.456C14.7806 60.456 14.5166 60.532 14.3566 60.684C14.1966 60.836 14.1166 61.064 14.1166 61.368ZM20.6586 55.608H19.5546V54.504H20.6586V55.608ZM20.5986 63H19.6146V57.06H20.5986V63ZM22.7081 61.56V54.12H23.6921V61.512C23.6921 61.728 23.7241 61.892 23.7881 62.004C23.8601 62.108 24.0001 62.16 24.2081 62.16H24.4001V63.06H24.1241C23.5961 63.06 23.2281 62.92 23.0201 62.64C22.8121 62.36 22.7081 62 22.7081 61.56ZM27.9121 63.6C27.6561 64.32 27.3401 64.844 26.9641 65.172C26.5961 65.508 26.0801 65.676 25.4161 65.676V64.704C25.6881 64.696 25.9201 64.66 26.1121 64.596C26.3121 64.532 26.4881 64.4 26.6401 64.2C26.8001 64.008 26.9521 63.72 27.0961 63.336L27.2161 63.036L25.0801 57.06H26.0881L27.0841 59.952L27.6961 61.8L28.2841 59.952L29.2561 57.06H30.2281L27.9121 63.6ZM36.9536 57.864C36.7296 57.864 36.4776 57.924 36.1976 58.044C35.9176 58.156 35.5656 58.38 35.1416 58.716V63H34.1576V57.06H35.0936V57.888C35.5176 57.536 35.8936 57.292 36.2216 57.156C36.5496 57.012 36.8736 56.94 37.1936 56.94C37.5696 56.94 37.8816 57.028 38.1296 57.204C38.3776 57.372 38.5616 57.616 38.6816 57.936C39.1216 57.56 39.5136 57.3 39.8576 57.156C40.2096 57.012 40.5536 56.94 40.8896 56.94C41.4176 56.94 41.8216 57.116 42.1016 57.468C42.3816 57.812 42.5216 58.304 42.5216 58.944V63H41.5376V59.088C41.5376 58.272 41.2416 57.864 40.6496 57.864C40.4256 57.864 40.1696 57.924 39.8816 58.044C39.6016 58.156 39.2496 58.38 38.8256 58.716C38.8336 58.748 38.8376 58.784 38.8376 58.824C38.8376 58.864 38.8376 58.904 38.8376 58.944V63H37.8536V59.088C37.8536 58.272 37.5536 57.864 36.9536 57.864ZM49.2913 59.664V60.384C49.2913 61.232 49.0713 61.9 48.6313 62.388C48.1993 62.876 47.5793 63.12 46.7713 63.12C45.9713 63.12 45.3513 62.876 44.9113 62.388C44.4713 61.9 44.2513 61.232 44.2513 60.384V59.664C44.2513 58.832 44.4673 58.172 44.8993 57.684C45.3393 57.188 45.9633 56.94 46.7713 56.94C47.5793 56.94 48.1993 57.188 48.6313 57.684C49.0713 58.172 49.2913 58.832 49.2913 59.664ZM48.2713 59.664C48.2713 59.096 48.1433 58.652 47.8873 58.332C47.6313 58.004 47.2593 57.84 46.7713 57.84C46.2913 57.84 45.9193 58.004 45.6553 58.332C45.3993 58.652 45.2713 59.096 45.2713 59.664V60.384C45.2713 60.976 45.3993 61.432 45.6553 61.752C45.9193 62.072 46.2913 62.232 46.7713 62.232C47.2593 62.232 47.6313 62.072 47.8873 61.752C48.1433 61.432 48.2713 60.976 48.2713 60.384V59.664ZM55.7834 59.664V60.384C55.7834 61.232 55.5634 61.9 55.1234 62.388C54.6914 62.876 54.0714 63.12 53.2634 63.12C52.4634 63.12 51.8434 62.876 51.4034 62.388C50.9634 61.9 50.7434 61.232 50.7434 60.384V59.664C50.7434 58.832 50.9594 58.172 51.3914 57.684C51.8314 57.188 52.4554 56.94 53.2634 56.94C54.0714 56.94 54.6914 57.188 55.1234 57.684C55.5634 58.172 55.7834 58.832 55.7834 59.664ZM54.7634 59.664C54.7634 59.096 54.6354 58.652 54.3794 58.332C54.1234 58.004 53.7514 57.84 53.2634 57.84C52.7834 57.84 52.4114 58.004 52.1474 58.332C51.8914 58.652 51.7634 59.096 51.7634 59.664V60.384C51.7634 60.976 51.8914 61.432 52.1474 61.752C52.4114 62.072 52.7834 62.232 53.2634 62.232C53.7514 62.232 54.1234 62.072 54.3794 61.752C54.6354 61.432 54.7634 60.976 54.7634 60.384V59.664ZM61.1836 63V62.172C60.8156 62.524 60.4796 62.772 60.1756 62.916C59.8796 63.052 59.5716 63.12 59.2516 63.12C58.6196 63.12 58.1316 62.88 57.7876 62.4C57.4516 61.92 57.2836 61.248 57.2836 60.384V59.688C57.2836 58.848 57.4916 58.18 57.9076 57.684C58.3316 57.188 58.9436 56.94 59.7436 56.94C59.9756 56.94 60.2076 56.964 60.4396 57.012C60.6716 57.06 60.9036 57.128 61.1356 57.216V54.12H62.1196V63H61.1836ZM58.3036 60.384C58.3036 61.008 58.3996 61.468 58.5916 61.764C58.7916 62.052 59.0876 62.196 59.4796 62.196C59.7116 62.196 59.9516 62.14 60.1996 62.028C60.4476 61.908 60.7596 61.664 61.1356 61.296V58.128C60.9036 58.024 60.6796 57.952 60.4636 57.912C60.2476 57.864 60.0356 57.84 59.8276 57.84C59.2836 57.84 58.8916 58.004 58.6516 58.332C58.4196 58.66 58.3036 59.112 58.3036 59.688V60.384ZM67.5489 59.676V60.384C67.5489 60.992 67.6609 61.452 67.8849 61.764C68.1089 62.068 68.4649 62.22 68.9529 62.22C69.4329 62.22 69.9489 62.096 70.5009 61.848L70.8009 62.676C70.1449 62.972 69.5089 63.12 68.8929 63.12C68.1249 63.12 67.5409 62.876 67.1409 62.388C66.7409 61.9 66.5409 61.232 66.5409 60.384V59.676C66.5409 58.828 66.7409 58.16 67.1409 57.672C67.5409 57.184 68.1249 56.94 68.8929 56.94C69.1809 56.94 69.4769 56.98 69.7809 57.06C70.0929 57.132 70.4049 57.236 70.7169 57.372L70.4169 58.212C70.1529 58.1 69.8969 58.012 69.6489 57.948C69.4089 57.884 69.1769 57.852 68.9529 57.852C68.4649 57.852 68.1089 58.008 67.8849 58.32C67.6609 58.624 67.5489 59.076 67.5489 59.676ZM75.0995 57.864C74.8755 57.864 74.6115 57.92 74.3075 58.032C74.0115 58.144 73.6515 58.372 73.2275 58.716V63H72.2435V54.12H73.2275V57.852C73.6435 57.5 74.0195 57.26 74.3555 57.132C74.6915 57.004 75.0195 56.94 75.3395 56.94C75.8915 56.94 76.3115 57.116 76.5995 57.468C76.8955 57.812 77.0435 58.304 77.0435 58.944V63H76.0595V59.088C76.0595 58.272 75.7395 57.864 75.0995 57.864ZM83.407 62.652C83.047 62.828 82.687 62.948 82.327 63.012C81.967 63.084 81.635 63.12 81.331 63.12C80.475 63.12 79.835 62.876 79.411 62.388C78.995 61.9 78.787 61.232 78.787 60.384V59.664C78.787 58.84 78.995 58.18 79.411 57.684C79.835 57.188 80.431 56.94 81.199 56.94C81.607 56.94 81.979 57.024 82.315 57.192C82.659 57.352 82.931 57.6 83.131 57.936C83.339 58.264 83.443 58.688 83.443 59.208C83.443 59.544 83.395 59.928 83.299 60.36H79.759V60.384C79.759 60.992 79.883 61.452 80.131 61.764C80.387 62.076 80.795 62.232 81.355 62.232C81.611 62.232 81.891 62.2 82.195 62.136C82.507 62.072 82.811 61.972 83.107 61.836L83.407 62.652ZM81.199 57.804C80.735 57.804 80.383 57.956 80.143 58.26C79.911 58.556 79.783 58.976 79.759 59.52H82.447C82.471 59.376 82.483 59.24 82.483 59.112C82.483 58.664 82.355 58.336 82.099 58.128C81.851 57.912 81.551 57.804 81.199 57.804ZM85.8418 59.676V60.384C85.8418 60.992 85.9538 61.452 86.1778 61.764C86.4018 62.068 86.7578 62.22 87.2458 62.22C87.7258 62.22 88.2418 62.096 88.7938 61.848L89.0938 62.676C88.4378 62.972 87.8018 63.12 87.1858 63.12C86.4178 63.12 85.8338 62.876 85.4338 62.388C85.0338 61.9 84.8338 61.232 84.8338 60.384V59.676C84.8338 58.828 85.0338 58.16 85.4338 57.672C85.8338 57.184 86.4178 56.94 87.1858 56.94C87.4738 56.94 87.7698 56.98 88.0738 57.06C88.3858 57.132 88.6978 57.236 89.0098 57.372L88.7098 58.212C88.4458 58.1 88.1898 58.012 87.9418 57.948C87.7018 57.884 87.4698 57.852 87.2458 57.852C86.7578 57.852 86.4018 58.008 86.1778 58.32C85.9538 58.624 85.8418 59.076 85.8418 59.676ZM94.1965 63L92.5285 60.252C92.3765 60.404 92.2165 60.56 92.0485 60.72C91.8805 60.88 91.7045 61.04 91.5205 61.2V63H90.5365V54.12H91.5205V60.096C92.0405 59.592 92.5005 59.1 92.9005 58.62C93.3085 58.14 93.6805 57.62 94.0165 57.06H95.1445C94.8565 57.54 94.5605 57.984 94.2565 58.392C93.9605 58.792 93.6245 59.2 93.2485 59.616L95.3845 63H94.1965ZM95.8829 59.796V58.932H99.2429V59.796H95.8829ZM102.01 55.608H100.906V54.504H102.01V55.608ZM101.95 63H100.966V57.06H101.95V63ZM106.928 57.864C106.704 57.864 106.44 57.92 106.136 58.032C105.84 58.144 105.48 58.372 105.056 58.716V63H104.072V57.06H105.008V57.888C105.432 57.528 105.816 57.28 106.16 57.144C106.512 57.008 106.848 56.94 107.168 56.94C107.72 56.94 108.14 57.116 108.428 57.468C108.724 57.812 108.872 58.304 108.872 58.944V63H107.888V59.088C107.888 58.272 107.568 57.864 106.928 57.864Z" fill="black"/>
<path d="M7.94 104.184C8.444 104.184 8.832 104.076 9.104 103.86C9.376 103.636 9.512 103.312 9.512 102.888C9.512 102.536 9.416 102.24 9.224 102C9.04 101.76 8.736 101.576 8.312 101.448L7.34 101.16C6.732 100.976 6.284 100.7 5.996 100.332C5.708 99.956 5.564 99.496 5.564 98.952C5.564 98.536 5.644 98.16 5.804 97.824C5.972 97.488 6.236 97.22 6.596 97.02C6.964 96.82 7.444 96.72 8.036 96.72C8.396 96.72 8.768 96.764 9.152 96.852C9.536 96.932 9.924 97.064 10.316 97.248L9.98 98.148C9.596 97.98 9.248 97.86 8.936 97.788C8.632 97.708 8.34 97.668 8.06 97.668C7.604 97.668 7.248 97.764 6.992 97.956C6.744 98.14 6.62 98.448 6.62 98.88C6.62 99.192 6.704 99.456 6.872 99.672C7.04 99.88 7.34 100.052 7.772 100.188L8.744 100.476C9.96 100.836 10.568 101.612 10.568 102.804C10.568 103.492 10.36 104.052 9.944 104.484C9.528 104.908 8.86 105.12 7.94 105.12C7.564 105.12 7.164 105.076 6.74 104.988C6.324 104.892 5.892 104.744 5.444 104.544L5.768 103.656C6.192 103.848 6.572 103.984 6.908 104.064C7.252 104.144 7.596 104.184 7.94 104.184ZM12.1143 103.56V96.12H13.0983V103.512C13.0983 103.728 13.1303 103.892 13.1943 104.004C13.2663 104.108 13.4063 104.16 13.6143 104.16H13.8063V105.06H13.5303C13.0023 105.06 12.6343 104.92 12.4263 104.64C12.2183 104.36 12.1143 104 12.1143 103.56ZM19.5984 104.652C19.2384 104.828 18.8784 104.948 18.5184 105.012C18.1584 105.084 17.8264 105.12 17.5224 105.12C16.6664 105.12 16.0264 104.876 15.6024 104.388C15.1864 103.9 14.9784 103.232 14.9784 102.384V101.664C14.9784 100.84 15.1864 100.18 15.6024 99.684C16.0264 99.188 16.6224 98.94 17.3904 98.94C17.7984 98.94 18.1704 99.024 18.5064 99.192C18.8504 99.352 19.1224 99.6 19.3224 99.936C19.5304 100.264 19.6344 100.688 19.6344 101.208C19.6344 101.544 19.5864 101.928 19.4904 102.36H15.9504V102.384C15.9504 102.992 16.0744 103.452 16.3224 103.764C16.5784 104.076 16.9864 104.232 17.5464 104.232C17.8024 104.232 18.0824 104.2 18.3864 104.136C18.6984 104.072 19.0024 103.972 19.2984 103.836L19.5984 104.652ZM17.3904 99.804C16.9264 99.804 16.5744 99.956 16.3344 100.26C16.1024 100.556 15.9744 100.976 15.9504 101.52H18.6384C18.6624 101.376 18.6744 101.24 18.6744 101.112C18.6744 100.664 18.5464 100.336 18.2904 100.128C18.0424 99.912 17.7424 99.804 17.3904 99.804ZM25.6453 104.652C25.2853 104.828 24.9253 104.948 24.5653 105.012C24.2053 105.084 23.8733 105.12 23.5693 105.12C22.7133 105.12 22.0733 104.876 21.6493 104.388C21.2333 103.9 21.0253 103.232 21.0253 102.384V101.664C21.0253 100.84 21.2333 100.18 21.6493 99.684C22.0733 99.188 22.6693 98.94 23.4373 98.94C23.8453 98.94 24.2173 99.024 24.5533 99.192C24.8973 99.352 25.1693 99.6 25.3693 99.936C25.5773 100.264 25.6813 100.688 25.6813 101.208C25.6813 101.544 25.6333 101.928 25.5373 102.36H21.9973V102.384C21.9973 102.992 22.1213 103.452 22.3693 103.764C22.6253 104.076 23.0333 104.232 23.5933 104.232C23.8493 104.232 24.1293 104.2 24.4333 104.136C24.7453 104.072 25.0493 103.972 25.3453 103.836L25.6453 104.652ZM23.4373 99.804C22.9733 99.804 22.6213 99.956 22.3813 100.26C22.1493 100.556 22.0213 100.976 21.9973 101.52H24.6853C24.7093 101.376 24.7213 101.24 24.7213 101.112C24.7213 100.664 24.5933 100.336 24.3373 100.128C24.0893 99.912 23.7893 99.804 23.4373 99.804ZM29.7601 105.12C29.3121 105.12 28.8481 105.028 28.3681 104.844V107.556H27.3841V99.06H28.3201V99.9C28.6881 99.548 29.0241 99.3 29.3281 99.156C29.6321 99.012 29.9441 98.94 30.2641 98.94C30.8961 98.94 31.3801 99.18 31.7161 99.66C32.0601 100.14 32.2321 100.816 32.2321 101.688V102.384C32.2321 103.216 32.0201 103.88 31.5961 104.376C31.1801 104.872 30.5681 105.12 29.7601 105.12ZM30.0241 99.864C29.7921 99.864 29.5521 99.924 29.3041 100.044C29.0561 100.164 28.7441 100.408 28.3681 100.776V103.944C28.6001 104.048 28.8241 104.124 29.0401 104.172C29.2561 104.212 29.4681 104.232 29.6761 104.232C30.2201 104.232 30.6121 104.068 30.8521 103.74C31.0921 103.404 31.2121 102.952 31.2121 102.384V101.688C31.2121 101.064 31.1121 100.604 30.9121 100.308C30.7201 100.012 30.4241 99.864 30.0241 99.864ZM39.9294 104.784C39.4814 105.008 39.0054 105.12 38.5014 105.12C38.0694 105.12 37.7294 105.032 37.4814 104.856C37.2414 104.68 37.0694 104.444 36.9654 104.148C36.8694 103.852 36.8214 103.524 36.8214 103.164V99.924H35.7894V99.06H36.8214V97.404H37.8054V99.06H39.7494V99.924H37.8054V103.128C37.8054 103.544 37.8734 103.832 38.0094 103.992C38.1534 104.144 38.3734 104.22 38.6694 104.22C38.8134 104.22 38.9614 104.204 39.1134 104.172C39.2734 104.132 39.4454 104.068 39.6294 103.98L39.9294 104.784ZM44.344 99.924C43.984 99.924 43.632 99.988 43.288 100.116C42.952 100.244 42.592 100.488 42.208 100.848V105H41.224V99.06H42.16V100.02C42.568 99.62 42.94 99.34 43.276 99.18C43.62 99.02 43.976 98.94 44.344 98.94V99.924ZM49.9742 105.06C49.6062 105.06 49.3102 104.976 49.0862 104.808C48.8702 104.64 48.7182 104.432 48.6302 104.184C48.2382 104.528 47.8822 104.772 47.5622 104.916C47.2422 105.052 46.9222 105.12 46.6022 105.12C46.0822 105.12 45.6982 104.952 45.4502 104.616C45.2022 104.28 45.0782 103.868 45.0782 103.38C45.0782 103.052 45.1382 102.76 45.2582 102.504C45.3782 102.248 45.5822 102.048 45.8702 101.904C46.1582 101.752 46.5462 101.676 47.0342 101.676C47.2502 101.676 47.4862 101.692 47.7422 101.724C47.9982 101.748 48.2582 101.78 48.5222 101.82V101.016C48.5222 100.568 48.4222 100.264 48.2222 100.104C48.0302 99.936 47.7462 99.852 47.3702 99.852C46.8582 99.852 46.2862 99.992 45.6542 100.272L45.3422 99.456C45.7102 99.288 46.0622 99.16 46.3982 99.072C46.7342 98.984 47.0742 98.94 47.4182 98.94C47.9782 98.94 48.4062 99.032 48.7022 99.216C48.9982 99.4 49.2022 99.644 49.3142 99.948C49.4262 100.252 49.4822 100.584 49.4822 100.944V103.512C49.4822 103.696 49.5182 103.852 49.5902 103.98C49.6622 104.1 49.8062 104.16 50.0222 104.16H50.1542V105.06H49.9742ZM46.0502 103.368C46.0502 103.64 46.1142 103.86 46.2422 104.028C46.3702 104.196 46.5542 104.28 46.7942 104.28C47.0022 104.28 47.2422 104.22 47.5142 104.1C47.7862 103.972 48.1222 103.72 48.5222 103.344V102.588C47.9782 102.5 47.4982 102.456 47.0822 102.456C46.7142 102.456 46.4502 102.532 46.2902 102.684C46.1302 102.836 46.0502 103.064 46.0502 103.368ZM52.2442 101.676V102.384C52.2442 102.992 52.3562 103.452 52.5802 103.764C52.8042 104.068 53.1602 104.22 53.6482 104.22C54.1282 104.22 54.6442 104.096 55.1962 103.848L55.4962 104.676C54.8402 104.972 54.2042 105.12 53.5882 105.12C52.8202 105.12 52.2362 104.876 51.8362 104.388C51.4362 103.9 51.2362 103.232 51.2362 102.384V101.676C51.2362 100.828 51.4362 100.16 51.8362 99.672C52.2362 99.184 52.8202 98.94 53.5882 98.94C53.8762 98.94 54.1722 98.98 54.4762 99.06C54.7882 99.132 55.1002 99.236 55.4122 99.372L55.1122 100.212C54.8482 100.1 54.5922 100.012 54.3442 99.948C54.1042 99.884 53.8722 99.852 53.6482 99.852C53.1602 99.852 52.8042 100.008 52.5802 100.32C52.3562 100.624 52.2442 101.076 52.2442 101.676ZM60.5988 105L58.9308 102.252C58.7788 102.404 58.6188 102.56 58.4508 102.72C58.2828 102.88 58.1068 103.04 57.9228 103.2V105H56.9388V96.12H57.9228V102.096C58.4428 101.592 58.9028 101.1 59.3028 100.62C59.7108 100.14 60.0828 99.62 60.4188 99.06H61.5468C61.2588 99.54 60.9628 99.984 60.6588 100.392C60.3628 100.792 60.0268 101.2 59.6508 101.616L61.7868 105H60.5988ZM64.0766 97.608H62.9726V96.504H64.0766V97.608ZM64.0166 105H63.0326V99.06H64.0166V105ZM68.994 99.864C68.77 99.864 68.506 99.92 68.202 100.032C67.906 100.144 67.546 100.372 67.122 100.716V105H66.138V99.06H67.074V99.888C67.498 99.528 67.882 99.28 68.226 99.144C68.578 99.008 68.914 98.94 69.234 98.94C69.786 98.94 70.206 99.116 70.494 99.468C70.79 99.812 70.938 100.304 70.938 100.944V105H69.954V101.088C69.954 100.272 69.634 99.864 68.994 99.864ZM77.7455 105.744C77.7455 106.328 77.5055 106.796 77.0255 107.148C76.5535 107.5 75.9015 107.676 75.0695 107.676C74.6535 107.676 74.2175 107.62 73.7615 107.508C73.3135 107.396 72.8895 107.216 72.4895 106.968L72.8255 106.2C73.2255 106.424 73.6095 106.58 73.9775 106.668C74.3535 106.764 74.7175 106.812 75.0695 106.812C75.6135 106.812 76.0335 106.724 76.3295 106.548C76.6255 106.372 76.7735 106.136 76.7735 105.84C76.7735 105.624 76.7015 105.456 76.5575 105.336C76.4135 105.224 76.1815 105.168 75.8615 105.168H74.4815C73.9615 105.168 73.5855 105.044 73.3535 104.796C73.1215 104.548 73.0055 104.276 73.0055 103.98C73.0055 103.772 73.0535 103.568 73.1495 103.368C73.2455 103.16 73.3815 102.956 73.5575 102.756C73.2775 102.588 73.0535 102.36 72.8855 102.072C72.7175 101.776 72.6335 101.42 72.6335 101.004C72.6335 100.548 72.7295 100.168 72.9215 99.864C73.1215 99.56 73.3855 99.332 73.7135 99.18C74.0415 99.02 74.4095 98.94 74.8175 98.94H75.0215C75.3015 98.94 75.5575 98.98 75.7895 99.06H77.9255V99.936L76.6295 99.756C76.7975 99.9 76.9335 100.08 77.0375 100.296C77.1415 100.504 77.1935 100.76 77.1935 101.064C77.1935 101.496 77.0935 101.86 76.8935 102.156C76.7015 102.452 76.4415 102.68 76.1135 102.84C75.7855 102.992 75.4215 103.068 75.0215 103.068H74.8175C74.7135 103.068 74.6135 103.064 74.5175 103.056C74.4215 103.04 74.3255 103.024 74.2295 103.008C73.9975 103.264 73.8815 103.516 73.8815 103.764C73.8815 104.084 74.1055 104.244 74.5535 104.244H75.8975C76.4735 104.244 76.9255 104.372 77.2535 104.628C77.5815 104.884 77.7455 105.256 77.7455 105.744ZM75.0215 102.216C75.3335 102.216 75.6095 102.116 75.8495 101.916C76.0895 101.716 76.2095 101.412 76.2095 101.004C76.2095 100.604 76.0895 100.304 75.8495 100.104C75.6095 99.896 75.3335 99.792 75.0215 99.792H74.8175C74.4975 99.792 74.2175 99.896 73.9775 100.104C73.7375 100.304 73.6175 100.604 73.6175 101.004C73.6175 101.412 73.7375 101.716 73.9775 101.916C74.2175 102.116 74.4975 102.216 74.8175 102.216H75.0215Z" fill="black"/>
<path d="M10.592 147L9.98 145.104H6.884L6.272 147H5.252L7.964 138.84H8.948L11.672 147H10.592ZM7.64 142.752L7.184 144.156H9.668L9.212 142.752L8.432 140.232L7.64 142.752ZM14.2418 147H13.1978V138.84H14.2418V147ZM18.8087 143.796V142.932H22.1687V143.796H18.8087ZM28.8812 147.12C28.4332 147.12 27.9692 147.028 27.4892 146.844V149.556H26.5052V141.06H27.4412V141.9C27.8092 141.548 28.1452 141.3 28.4492 141.156C28.7532 141.012 29.0652 140.94 29.3852 140.94C30.0172 140.94 30.5012 141.18 30.8372 141.66C31.1812 142.14 31.3532 142.816 31.3532 143.688V144.384C31.3532 145.216 31.1412 145.88 30.7172 146.376C30.3012 146.872 29.6892 147.12 28.8812 147.12ZM29.1452 141.864C28.9132 141.864 28.6732 141.924 28.4252 142.044C28.1772 142.164 27.8652 142.408 27.4892 142.776V145.944C27.7212 146.048 27.9452 146.124 28.1612 146.172C28.3772 146.212 28.5892 146.232 28.7972 146.232C29.3412 146.232 29.7332 146.068 29.9732 145.74C30.2132 145.404 30.3332 144.952 30.3332 144.384V143.688C30.3332 143.064 30.2332 142.604 30.0332 142.308C29.8412 142.012 29.5452 141.864 29.1452 141.864ZM37.8772 143.664V144.384C37.8772 145.232 37.6572 145.9 37.2172 146.388C36.7852 146.876 36.1652 147.12 35.3572 147.12C34.5572 147.12 33.9372 146.876 33.4972 146.388C33.0572 145.9 32.8372 145.232 32.8372 144.384V143.664C32.8372 142.832 33.0532 142.172 33.4852 141.684C33.9252 141.188 34.5492 140.94 35.3572 140.94C36.1652 140.94 36.7852 141.188 37.2172 141.684C37.6572 142.172 37.8772 142.832 37.8772 143.664ZM36.8572 143.664C36.8572 143.096 36.7292 142.652 36.4732 142.332C36.2172 142.004 35.8452 141.84 35.3572 141.84C34.8772 141.84 34.5052 142.004 34.2412 142.332C33.9852 142.652 33.8572 143.096 33.8572 143.664V144.384C33.8572 144.976 33.9852 145.432 34.2412 145.752C34.5052 146.072 34.8772 146.232 35.3572 146.232C35.8452 146.232 36.2172 146.072 36.4732 145.752C36.7292 145.432 36.8572 144.976 36.8572 144.384V143.664ZM46.7825 141.06L45.2585 147H44.1185L42.8705 142.128L41.5865 147H40.4465L38.9345 141.06H39.9425L40.5425 143.544L41.0825 146.004L42.3665 141.06H43.4105L44.6945 146.028L45.2225 143.556L45.8105 141.06H46.7825ZM52.4695 146.652C52.1095 146.828 51.7495 146.948 51.3895 147.012C51.0295 147.084 50.6975 147.12 50.3935 147.12C49.5375 147.12 48.8975 146.876 48.4735 146.388C48.0575 145.9 47.8495 145.232 47.8495 144.384V143.664C47.8495 142.84 48.0575 142.18 48.4735 141.684C48.8975 141.188 49.4935 140.94 50.2615 140.94C50.6695 140.94 51.0415 141.024 51.3775 141.192C51.7215 141.352 51.9935 141.6 52.1935 141.936C52.4015 142.264 52.5055 142.688 52.5055 143.208C52.5055 143.544 52.4575 143.928 52.3615 144.36H48.8215V144.384C48.8215 144.992 48.9455 145.452 49.1935 145.764C49.4495 146.076 49.8575 146.232 50.4175 146.232C50.6735 146.232 50.9535 146.2 51.2575 146.136C51.5695 146.072 51.8735 145.972 52.1695 145.836L52.4695 146.652ZM50.2615 141.804C49.7975 141.804 49.4455 141.956 49.2055 142.26C48.9735 142.556 48.8455 142.976 48.8215 143.52H51.5095C51.5335 143.376 51.5455 143.24 51.5455 143.112C51.5455 142.664 51.4175 142.336 51.1615 142.128C50.9135 141.912 50.6135 141.804 50.2615 141.804ZM57.3283 141.924C56.9683 141.924 56.6163 141.988 56.2723 142.116C55.9363 142.244 55.5763 142.488 55.1923 142.848V147H54.2083V141.06H55.1443V142.02C55.5523 141.62 55.9243 141.34 56.2603 141.18C56.6043 141.02 56.9603 140.94 57.3283 140.94V141.924ZM62.9226 146.652C62.5626 146.828 62.2026 146.948 61.8426 147.012C61.4826 147.084 61.1506 147.12 60.8466 147.12C59.9906 147.12 59.3506 146.876 58.9266 146.388C58.5106 145.9 58.3026 145.232 58.3026 144.384V143.664C58.3026 142.84 58.5106 142.18 58.9266 141.684C59.3506 141.188 59.9466 140.94 60.7146 140.94C61.1226 140.94 61.4946 141.024 61.8306 141.192C62.1746 141.352 62.4466 141.6 62.6466 141.936C62.8546 142.264 62.9586 142.688 62.9586 143.208C62.9586 143.544 62.9106 143.928 62.8146 144.36H59.2746V144.384C59.2746 144.992 59.3986 145.452 59.6466 145.764C59.9026 146.076 60.3106 146.232 60.8706 146.232C61.1266 146.232 61.4066 146.2 61.7106 146.136C62.0226 146.072 62.3266 145.972 62.6226 145.836L62.9226 146.652ZM60.7146 141.804C60.2506 141.804 59.8986 141.956 59.6586 142.26C59.4266 142.556 59.2986 142.976 59.2746 143.52H61.9626C61.9866 143.376 61.9986 143.24 61.9986 143.112C61.9986 142.664 61.8706 142.336 61.6146 142.128C61.3666 141.912 61.0666 141.804 60.7146 141.804ZM68.2735 147V146.172C67.9055 146.524 67.5695 146.772 67.2655 146.916C66.9695 147.052 66.6615 147.12 66.3415 147.12C65.7095 147.12 65.2215 146.88 64.8775 146.4C64.5415 145.92 64.3735 145.248 64.3735 144.384V143.688C64.3735 142.848 64.5815 142.18 64.9975 141.684C65.4215 141.188 66.0335 140.94 66.8335 140.94C67.0655 140.94 67.2975 140.964 67.5295 141.012C67.7615 141.06 67.9935 141.128 68.2255 141.216V138.12H69.2095V147H68.2735ZM65.3935 144.384C65.3935 145.008 65.4895 145.468 65.6815 145.764C65.8815 146.052 66.1775 146.196 66.5695 146.196C66.8015 146.196 67.0415 146.14 67.2895 146.028C67.5375 145.908 67.8495 145.664 68.2255 145.296V142.128C67.9935 142.024 67.7695 141.952 67.5535 141.912C67.3375 141.864 67.1255 141.84 66.9175 141.84C66.3735 141.84 65.9815 142.004 65.7415 142.332C65.5095 142.66 65.3935 143.112 65.3935 143.688V144.384ZM74.9867 139.608H73.8827V138.504H74.9867V139.608ZM74.9267 147H73.9427V141.06H74.9267V147ZM79.9042 141.864C79.6802 141.864 79.4162 141.92 79.1122 142.032C78.8162 142.144 78.4562 142.372 78.0322 142.716V147H77.0482V141.06H77.9842V141.888C78.4082 141.528 78.7922 141.28 79.1362 141.144C79.4882 141.008 79.8242 140.94 80.1442 140.94C80.6962 140.94 81.1162 141.116 81.4042 141.468C81.7002 141.812 81.8482 142.304 81.8482 142.944V147H80.8642V143.088C80.8642 142.272 80.5442 141.864 79.9042 141.864ZM85.3557 146.244C86.1557 146.244 86.5557 145.972 86.5557 145.428C86.5557 145.196 86.4837 145.012 86.3397 144.876C86.1957 144.74 85.9317 144.624 85.5477 144.528L84.8877 144.36C84.3997 144.24 84.0357 144.032 83.7957 143.736C83.5557 143.432 83.4357 143.072 83.4357 142.656C83.4357 142.352 83.5037 142.072 83.6397 141.816C83.7757 141.552 83.9917 141.34 84.2877 141.18C84.5837 141.02 84.9677 140.94 85.4397 140.94C85.7437 140.94 86.0517 140.976 86.3637 141.048C86.6837 141.112 87.0077 141.224 87.3357 141.384L87.0237 142.212C86.4397 141.948 85.9117 141.816 85.4397 141.816C84.7437 141.816 84.3957 142.076 84.3957 142.596C84.3957 142.796 84.4597 142.968 84.5877 143.112C84.7157 143.256 84.9557 143.372 85.3077 143.46L85.9677 143.628C86.4957 143.756 86.8837 143.964 87.1317 144.252C87.3797 144.54 87.5037 144.912 87.5037 145.368C87.5037 145.696 87.4317 145.996 87.2877 146.268C87.1517 146.532 86.9277 146.74 86.6157 146.892C86.3117 147.044 85.8997 147.12 85.3797 147.12C85.0357 147.12 84.6917 147.084 84.3477 147.012C84.0117 146.94 83.6637 146.824 83.3037 146.664L83.5677 145.848C83.9117 145.984 84.2237 146.084 84.5037 146.148C84.7837 146.212 85.0677 146.244 85.3557 146.244ZM90.1156 139.608H89.0116V138.504H90.1156V139.608ZM90.0556 147H89.0716V141.06H90.0556V147ZM96.9291 147.744C96.9291 148.328 96.6891 148.796 96.2091 149.148C95.7371 149.5 95.0851 149.676 94.2531 149.676C93.8371 149.676 93.4011 149.62 92.9451 149.508C92.4971 149.396 92.0731 149.216 91.6731 148.968L92.0091 148.2C92.4091 148.424 92.7931 148.58 93.1611 148.668C93.5371 148.764 93.9011 148.812 94.2531 148.812C94.7971 148.812 95.2171 148.724 95.5131 148.548C95.8091 148.372 95.9571 148.136 95.9571 147.84C95.9571 147.624 95.8851 147.456 95.7411 147.336C95.5971 147.224 95.3651 147.168 95.0451 147.168H93.6651C93.1451 147.168 92.7691 147.044 92.5371 146.796C92.3051 146.548 92.1891 146.276 92.1891 145.98C92.1891 145.772 92.2371 145.568 92.3331 145.368C92.4291 145.16 92.5651 144.956 92.7411 144.756C92.4611 144.588 92.2371 144.36 92.0691 144.072C91.9011 143.776 91.8171 143.42 91.8171 143.004C91.8171 142.548 91.9131 142.168 92.1051 141.864C92.3051 141.56 92.5691 141.332 92.8971 141.18C93.2251 141.02 93.5931 140.94 94.0011 140.94H94.2051C94.4851 140.94 94.7411 140.98 94.9731 141.06H97.1091V141.936L95.8131 141.756C95.9811 141.9 96.1171 142.08 96.2211 142.296C96.3251 142.504 96.3771 142.76 96.3771 143.064C96.3771 143.496 96.2771 143.86 96.0771 144.156C95.8851 144.452 95.6251 144.68 95.2971 144.84C94.9691 144.992 94.6051 145.068 94.2051 145.068H94.0011C93.8971 145.068 93.7971 145.064 93.7011 145.056C93.6051 145.04 93.5091 145.024 93.4131 145.008C93.1811 145.264 93.0651 145.516 93.0651 145.764C93.0651 146.084 93.2891 146.244 93.7371 146.244H95.0811C95.6571 146.244 96.1091 146.372 96.4371 146.628C96.7651 146.884 96.9291 147.256 96.9291 147.744ZM94.2051 144.216C94.5171 144.216 94.7931 144.116 95.0331 143.916C95.2731 143.716 95.3931 143.412 95.3931 143.004C95.3931 142.604 95.2731 142.304 95.0331 142.104C94.7931 141.896 94.5171 141.792 94.2051 141.792H94.0011C93.6811 141.792 93.4011 141.896 93.1611 142.104C92.9211 142.304 92.8011 142.604 92.8011 143.004C92.8011 143.412 92.9211 143.716 93.1611 143.916C93.4011 144.116 93.6811 144.216 94.0011 144.216H94.2051ZM101.267 141.864C101.043 141.864 100.779 141.92 100.475 142.032C100.179 142.144 99.8195 142.372 99.3955 142.716V147H98.4115V138.12H99.3955V141.852C99.8115 141.5 100.187 141.26 100.523 141.132C100.859 141.004 101.187 140.94 101.507 140.94C102.059 140.94 102.479 141.116 102.767 141.468C103.063 141.812 103.211 142.304 103.211 142.944V147H102.227V143.088C102.227 142.272 101.907 141.864 101.267 141.864ZM108.531 146.784C108.083 147.008 107.607 147.12 107.103 147.12C106.671 147.12 106.331 147.032 106.083 146.856C105.843 146.68 105.671 146.444 105.567 146.148C105.471 145.852 105.423 145.524 105.423 145.164V141.924H104.391V141.06H105.423V139.404H106.407V141.06H108.351V141.924H106.407V145.128C106.407 145.544 106.475 145.832 106.611 145.992C106.755 146.144 106.975 146.22 107.271 146.22C107.415 146.22 107.563 146.204 107.715 146.172C107.875 146.132 108.047 146.068 108.231 145.98L108.531 146.784ZM111.278 146.244C112.078 146.244 112.478 145.972 112.478 145.428C112.478 145.196 112.406 145.012 112.262 144.876C112.118 144.74 111.854 144.624 111.47 144.528L110.81 144.36C110.322 144.24 109.958 144.032 109.718 143.736C109.478 143.432 109.358 143.072 109.358 142.656C109.358 142.352 109.426 142.072 109.562 141.816C109.698 141.552 109.914 141.34 110.21 141.18C110.506 141.02 110.89 140.94 111.362 140.94C111.666 140.94 111.974 140.976 112.286 141.048C112.606 141.112 112.93 141.224 113.258 141.384L112.946 142.212C112.362 141.948 111.834 141.816 111.362 141.816C110.666 141.816 110.318 142.076 110.318 142.596C110.318 142.796 110.382 142.968 110.51 143.112C110.638 143.256 110.878 143.372 111.23 143.46L111.89 143.628C112.418 143.756 112.806 143.964 113.054 144.252C113.302 144.54 113.426 144.912 113.426 145.368C113.426 145.696 113.354 145.996 113.21 146.268C113.074 146.532 112.85 146.74 112.538 146.892C112.234 147.044 111.822 147.12 111.302 147.12C110.958 147.12 110.614 147.084 110.27 147.012C109.934 146.94 109.586 146.824 109.226 146.664L109.49 145.848C109.834 145.984 110.146 146.084 110.426 146.148C110.706 146.212 110.99 146.244 111.278 146.244Z" fill="black"/>
<path d="M6.272 189V180.84H8.816C9.6 180.84 10.196 181.048 10.604 181.464C11.02 181.872 11.228 182.42 11.228 183.108V183.744C11.228 184.432 11.02 184.984 10.604 185.4C10.196 185.816 9.6 186.024 8.816 186.024H7.316V189H6.272ZM8.816 181.824H7.316V185.052H8.816C9.248 185.052 9.576 184.936 9.8 184.704C10.032 184.472 10.148 184.152 10.148 183.744V183.108C10.148 182.708 10.032 182.396 9.8 182.172C9.576 181.94 9.248 181.824 8.816 181.824ZM17.0203 188.652C16.6603 188.828 16.3003 188.948 15.9403 189.012C15.5803 189.084 15.2483 189.12 14.9443 189.12C14.0883 189.12 13.4483 188.876 13.0243 188.388C12.6083 187.9 12.4003 187.232 12.4003 186.384V185.664C12.4003 184.84 12.6083 184.18 13.0243 183.684C13.4483 183.188 14.0443 182.94 14.8123 182.94C15.2203 182.94 15.5923 183.024 15.9283 183.192C16.2723 183.352 16.5443 183.6 16.7443 183.936C16.9523 184.264 17.0563 184.688 17.0563 185.208C17.0563 185.544 17.0083 185.928 16.9123 186.36H13.3723V186.384C13.3723 186.992 13.4963 187.452 13.7443 187.764C14.0003 188.076 14.4083 188.232 14.9683 188.232C15.2243 188.232 15.5043 188.2 15.8083 188.136C16.1203 188.072 16.4243 187.972 16.7203 187.836L17.0203 188.652ZM14.8123 183.804C14.3483 183.804 13.9963 183.956 13.7563 184.26C13.5243 184.556 13.3963 184.976 13.3723 185.52H16.0603C16.0843 185.376 16.0963 185.24 16.0963 185.112C16.0963 184.664 15.9683 184.336 15.7123 184.128C15.4643 183.912 15.1643 183.804 14.8123 183.804ZM21.8791 183.924C21.5191 183.924 21.1671 183.988 20.8231 184.116C20.4871 184.244 20.1271 184.488 19.7431 184.848V189H18.7591V183.06H19.6951V184.02C20.1031 183.62 20.4751 183.34 20.8111 183.18C21.1551 183.02 21.5111 182.94 21.8791 182.94V183.924ZM24.6174 188.244C25.4174 188.244 25.8174 187.972 25.8174 187.428C25.8174 187.196 25.7454 187.012 25.6014 186.876C25.4574 186.74 25.1934 186.624 24.8094 186.528L24.1494 186.36C23.6614 186.24 23.2974 186.032 23.0574 185.736C22.8174 185.432 22.6974 185.072 22.6974 184.656C22.6974 184.352 22.7654 184.072 22.9014 183.816C23.0374 183.552 23.2534 183.34 23.5494 183.18C23.8454 183.02 24.2294 182.94 24.7014 182.94C25.0054 182.94 25.3134 182.976 25.6254 183.048C25.9454 183.112 26.2694 183.224 26.5974 183.384L26.2854 184.212C25.7014 183.948 25.1734 183.816 24.7014 183.816C24.0054 183.816 23.6574 184.076 23.6574 184.596C23.6574 184.796 23.7214 184.968 23.8494 185.112C23.9774 185.256 24.2174 185.372 24.5694 185.46L25.2294 185.628C25.7574 185.756 26.1454 185.964 26.3934 186.252C26.6414 186.54 26.7654 186.912 26.7654 187.368C26.7654 187.696 26.6934 187.996 26.5494 188.268C26.4134 188.532 26.1894 188.74 25.8774 188.892C25.5734 189.044 25.1614 189.12 24.6414 189.12C24.2974 189.12 23.9534 189.084 23.6094 189.012C23.2734 188.94 22.9254 188.824 22.5654 188.664L22.8294 187.848C23.1734 187.984 23.4854 188.084 23.7654 188.148C24.0454 188.212 24.3294 188.244 24.6174 188.244ZM33.0373 185.664V186.384C33.0373 187.232 32.8173 187.9 32.3773 188.388C31.9453 188.876 31.3253 189.12 30.5173 189.12C29.7173 189.12 29.0973 188.876 28.6573 188.388C28.2173 187.9 27.9973 187.232 27.9973 186.384V185.664C27.9973 184.832 28.2133 184.172 28.6453 183.684C29.0853 183.188 29.7093 182.94 30.5173 182.94C31.3253 182.94 31.9453 183.188 32.3773 183.684C32.8173 184.172 33.0373 184.832 33.0373 185.664ZM32.0173 185.664C32.0173 185.096 31.8893 184.652 31.6333 184.332C31.3773 184.004 31.0053 183.84 30.5173 183.84C30.0373 183.84 29.6653 184.004 29.4013 184.332C29.1453 184.652 29.0173 185.096 29.0173 185.664V186.384C29.0173 186.976 29.1453 187.432 29.4013 187.752C29.6653 188.072 30.0373 188.232 30.5173 188.232C31.0053 188.232 31.3773 188.072 31.6333 187.752C31.8893 187.432 32.0173 186.976 32.0173 186.384V185.664ZM37.6815 183.864C37.4575 183.864 37.1935 183.92 36.8895 184.032C36.5935 184.144 36.2335 184.372 35.8095 184.716V189H34.8255V183.06H35.7615V183.888C36.1855 183.528 36.5695 183.28 36.9135 183.144C37.2655 183.008 37.6015 182.94 37.9215 182.94C38.4735 182.94 38.8935 183.116 39.1815 183.468C39.4775 183.812 39.6255 184.304 39.6255 184.944V189H38.6415V185.088C38.6415 184.272 38.3215 183.864 37.6815 183.864ZM46.025 189.06C45.657 189.06 45.361 188.976 45.137 188.808C44.921 188.64 44.769 188.432 44.681 188.184C44.289 188.528 43.933 188.772 43.613 188.916C43.293 189.052 42.973 189.12 42.653 189.12C42.133 189.12 41.749 188.952 41.501 188.616C41.253 188.28 41.129 187.868 41.129 187.38C41.129 187.052 41.189 186.76 41.309 186.504C41.429 186.248 41.633 186.048 41.921 185.904C42.209 185.752 42.597 185.676 43.085 185.676C43.301 185.676 43.537 185.692 43.793 185.724C44.049 185.748 44.309 185.78 44.573 185.82V185.016C44.573 184.568 44.473 184.264 44.273 184.104C44.081 183.936 43.797 183.852 43.421 183.852C42.909 183.852 42.337 183.992 41.705 184.272L41.393 183.456C41.761 183.288 42.113 183.16 42.449 183.072C42.785 182.984 43.125 182.94 43.469 182.94C44.029 182.94 44.457 183.032 44.753 183.216C45.049 183.4 45.253 183.644 45.365 183.948C45.477 184.252 45.533 184.584 45.533 184.944V187.512C45.533 187.696 45.569 187.852 45.641 187.98C45.713 188.1 45.857 188.16 46.073 188.16H46.205V189.06H46.025ZM42.101 187.368C42.101 187.64 42.165 187.86 42.293 188.028C42.421 188.196 42.605 188.28 42.845 188.28C43.053 188.28 43.293 188.22 43.565 188.1C43.837 187.972 44.173 187.72 44.573 187.344V186.588C44.029 186.5 43.549 186.456 43.133 186.456C42.765 186.456 42.501 186.532 42.341 186.684C42.181 186.836 42.101 187.064 42.101 187.368ZM47.587 187.56V180.12H48.571V187.512C48.571 187.728 48.603 187.892 48.667 188.004C48.739 188.108 48.879 188.16 49.087 188.16H49.279V189.06H49.003C48.475 189.06 48.107 188.92 47.899 188.64C47.691 188.36 47.587 188 47.587 187.56ZM51.807 181.608H50.703V180.504H51.807V181.608ZM51.747 189H50.763V183.06H51.747V189ZM55.3205 188.244C56.1205 188.244 56.5205 187.972 56.5205 187.428C56.5205 187.196 56.4485 187.012 56.3045 186.876C56.1605 186.74 55.8965 186.624 55.5125 186.528L54.8525 186.36C54.3645 186.24 54.0005 186.032 53.7605 185.736C53.5205 185.432 53.4005 185.072 53.4005 184.656C53.4005 184.352 53.4685 184.072 53.6045 183.816C53.7405 183.552 53.9565 183.34 54.2525 183.18C54.5485 183.02 54.9325 182.94 55.4045 182.94C55.7085 182.94 56.0165 182.976 56.3285 183.048C56.6485 183.112 56.9725 183.224 57.3005 183.384L56.9885 184.212C56.4045 183.948 55.8765 183.816 55.4045 183.816C54.7085 183.816 54.3605 184.076 54.3605 184.596C54.3605 184.796 54.4245 184.968 54.5525 185.112C54.6805 185.256 54.9205 185.372 55.2725 185.46L55.9325 185.628C56.4605 185.756 56.8485 185.964 57.0965 186.252C57.3445 186.54 57.4685 186.912 57.4685 187.368C57.4685 187.696 57.3965 187.996 57.2525 188.268C57.1165 188.532 56.8925 188.74 56.5805 188.892C56.2765 189.044 55.8645 189.12 55.3445 189.12C55.0005 189.12 54.6565 189.084 54.3125 189.012C53.9765 188.94 53.6285 188.824 53.2685 188.664L53.5325 187.848C53.8765 187.984 54.1885 188.084 54.4685 188.148C54.7485 188.212 55.0325 188.244 55.3205 188.244ZM63.3445 188.652C62.9845 188.828 62.6245 188.948 62.2645 189.012C61.9045 189.084 61.5725 189.12 61.2685 189.12C60.4125 189.12 59.7725 188.876 59.3485 188.388C58.9325 187.9 58.7245 187.232 58.7245 186.384V185.664C58.7245 184.84 58.9325 184.18 59.3485 183.684C59.7725 183.188 60.3685 182.94 61.1365 182.94C61.5445 182.94 61.9165 183.024 62.2525 183.192C62.5965 183.352 62.8685 183.6 63.0685 183.936C63.2765 184.264 63.3805 184.688 63.3805 185.208C63.3805 185.544 63.3325 185.928 63.2365 186.36H59.6965V186.384C59.6965 186.992 59.8205 187.452 60.0685 187.764C60.3245 188.076 60.7325 188.232 61.2925 188.232C61.5485 188.232 61.8285 188.2 62.1325 188.136C62.4445 188.072 62.7485 187.972 63.0445 187.836L63.3445 188.652ZM61.1365 183.804C60.6725 183.804 60.3205 183.956 60.0805 184.26C59.8485 184.556 59.7205 184.976 59.6965 185.52H62.3845C62.4085 185.376 62.4205 185.24 62.4205 185.112C62.4205 184.664 62.2925 184.336 62.0365 184.128C61.7885 183.912 61.4885 183.804 61.1365 183.804ZM68.6953 189V188.172C68.3273 188.524 67.9913 188.772 67.6873 188.916C67.3913 189.052 67.0833 189.12 66.7633 189.12C66.1313 189.12 65.6433 188.88 65.2993 188.4C64.9633 187.92 64.7953 187.248 64.7953 186.384V185.688C64.7953 184.848 65.0033 184.18 65.4193 183.684C65.8433 183.188 66.4553 182.94 67.2553 182.94C67.4873 182.94 67.7193 182.964 67.9513 183.012C68.1833 183.06 68.4153 183.128 68.6473 183.216V180.12H69.6313V189H68.6953ZM65.8153 186.384C65.8153 187.008 65.9113 187.468 66.1033 187.764C66.3033 188.052 66.5993 188.196 66.9913 188.196C67.2233 188.196 67.4633 188.14 67.7113 188.028C67.9593 187.908 68.2713 187.664 68.6473 187.296V184.128C68.4153 184.024 68.1913 183.952 67.9753 183.912C67.7593 183.864 67.5473 183.84 67.3393 183.84C66.7953 183.84 66.4033 184.004 66.1633 184.332C65.9313 184.66 65.8153 185.112 65.8153 185.688V186.384ZM9.176 197.924C8.816 197.924 8.464 197.988 8.12 198.116C7.784 198.244 7.424 198.488 7.04 198.848V203H6.056V197.06H6.992V198.02C7.4 197.62 7.772 197.34 8.108 197.18C8.452 197.02 8.808 196.94 9.176 196.94V197.924ZM14.7703 202.652C14.4103 202.828 14.0503 202.948 13.6903 203.012C13.3303 203.084 12.9983 203.12 12.6943 203.12C11.8383 203.12 11.1983 202.876 10.7743 202.388C10.3583 201.9 10.1503 201.232 10.1503 200.384V199.664C10.1503 198.84 10.3583 198.18 10.7743 197.684C11.1983 197.188 11.7943 196.94 12.5623 196.94C12.9703 196.94 13.3423 197.024 13.6783 197.192C14.0223 197.352 14.2943 197.6 14.4943 197.936C14.7023 198.264 14.8063 198.688 14.8063 199.208C14.8063 199.544 14.7583 199.928 14.6623 200.36H11.1223V200.384C11.1223 200.992 11.2463 201.452 11.4943 201.764C11.7503 202.076 12.1583 202.232 12.7183 202.232C12.9743 202.232 13.2543 202.2 13.5583 202.136C13.8703 202.072 14.1743 201.972 14.4703 201.836L14.7703 202.652ZM12.5623 197.804C12.0983 197.804 11.7463 197.956 11.5063 198.26C11.2743 198.556 11.1463 198.976 11.1223 199.52H13.8103C13.8343 199.376 13.8463 199.24 13.8463 199.112C13.8463 198.664 13.7183 198.336 13.4623 198.128C13.2143 197.912 12.9143 197.804 12.5623 197.804ZM17.2051 199.676V200.384C17.2051 200.992 17.3171 201.452 17.5411 201.764C17.7651 202.068 18.1211 202.22 18.6091 202.22C19.0891 202.22 19.6051 202.096 20.1571 201.848L20.4571 202.676C19.8011 202.972 19.1651 203.12 18.5491 203.12C17.7811 203.12 17.1971 202.876 16.7971 202.388C16.3971 201.9 16.1971 201.232 16.1971 200.384V199.676C16.1971 198.828 16.3971 198.16 16.7971 197.672C17.1971 197.184 17.7811 196.94 18.5491 196.94C18.8371 196.94 19.1331 196.98 19.4371 197.06C19.7491 197.132 20.0611 197.236 20.3731 197.372L20.0731 198.212C19.8091 198.1 19.5531 198.012 19.3051 197.948C19.0651 197.884 18.8331 197.852 18.6091 197.852C18.1211 197.852 17.7651 198.008 17.5411 198.32C17.3171 198.624 17.2051 199.076 17.2051 199.676ZM26.5803 199.664V200.384C26.5803 201.232 26.3603 201.9 25.9203 202.388C25.4883 202.876 24.8683 203.12 24.0603 203.12C23.2603 203.12 22.6403 202.876 22.2003 202.388C21.7603 201.9 21.5403 201.232 21.5403 200.384V199.664C21.5403 198.832 21.7563 198.172 22.1883 197.684C22.6283 197.188 23.2523 196.94 24.0603 196.94C24.8683 196.94 25.4883 197.188 25.9203 197.684C26.3603 198.172 26.5803 198.832 26.5803 199.664ZM25.5603 199.664C25.5603 199.096 25.4323 198.652 25.1763 198.332C24.9203 198.004 24.5483 197.84 24.0603 197.84C23.5803 197.84 23.2083 198.004 22.9443 198.332C22.6883 198.652 22.5603 199.096 22.5603 199.664V200.384C22.5603 200.976 22.6883 201.432 22.9443 201.752C23.2083 202.072 23.5803 202.232 24.0603 202.232C24.5483 202.232 24.9203 202.072 25.1763 201.752C25.4323 201.432 25.5603 200.976 25.5603 200.384V199.664ZM31.1645 197.864C30.9405 197.864 30.6885 197.924 30.4085 198.044C30.1285 198.156 29.7765 198.38 29.3525 198.716V203H28.3685V197.06H29.3045V197.888C29.7285 197.536 30.1045 197.292 30.4325 197.156C30.7605 197.012 31.0845 196.94 31.4045 196.94C31.7805 196.94 32.0925 197.028 32.3405 197.204C32.5885 197.372 32.7725 197.616 32.8925 197.936C33.3325 197.56 33.7245 197.3 34.0685 197.156C34.4205 197.012 34.7645 196.94 35.1005 196.94C35.6285 196.94 36.0325 197.116 36.3125 197.468C36.5925 197.812 36.7325 198.304 36.7325 198.944V203H35.7485V199.088C35.7485 198.272 35.4525 197.864 34.8605 197.864C34.6365 197.864 34.3805 197.924 34.0925 198.044C33.8125 198.156 33.4605 198.38 33.0365 198.716C33.0445 198.748 33.0485 198.784 33.0485 198.824C33.0485 198.864 33.0485 198.904 33.0485 198.944V203H32.0645V199.088C32.0645 198.272 31.7645 197.864 31.1645 197.864ZM41.5942 197.864C41.3702 197.864 41.1182 197.924 40.8382 198.044C40.5582 198.156 40.2062 198.38 39.7822 198.716V203H38.7982V197.06H39.7342V197.888C40.1582 197.536 40.5342 197.292 40.8622 197.156C41.1902 197.012 41.5142 196.94 41.8342 196.94C42.2102 196.94 42.5222 197.028 42.7702 197.204C43.0182 197.372 43.2022 197.616 43.3222 197.936C43.7622 197.56 44.1542 197.3 44.4982 197.156C44.8502 197.012 45.1942 196.94 45.5302 196.94C46.0582 196.94 46.4622 197.116 46.7422 197.468C47.0222 197.812 47.1622 198.304 47.1622 198.944V203H46.1782V199.088C46.1782 198.272 45.8822 197.864 45.2902 197.864C45.0662 197.864 44.8102 197.924 44.5222 198.044C44.2422 198.156 43.8902 198.38 43.4662 198.716C43.4742 198.748 43.4782 198.784 43.4782 198.824C43.4782 198.864 43.4782 198.904 43.4782 198.944V203H42.4942V199.088C42.4942 198.272 42.1942 197.864 41.5942 197.864ZM53.5359 202.652C53.1759 202.828 52.8159 202.948 52.4559 203.012C52.0959 203.084 51.7639 203.12 51.4599 203.12C50.6039 203.12 49.9639 202.876 49.5399 202.388C49.1239 201.9 48.9159 201.232 48.9159 200.384V199.664C48.9159 198.84 49.1239 198.18 49.5399 197.684C49.9639 197.188 50.5599 196.94 51.3279 196.94C51.7359 196.94 52.1079 197.024 52.4439 197.192C52.7879 197.352 53.0599 197.6 53.2599 197.936C53.4679 198.264 53.5719 198.688 53.5719 199.208C53.5719 199.544 53.5239 199.928 53.4279 200.36H49.8879V200.384C49.8879 200.992 50.0119 201.452 50.2599 201.764C50.5159 202.076 50.9239 202.232 51.4839 202.232C51.7399 202.232 52.0199 202.2 52.3239 202.136C52.6359 202.072 52.9399 201.972 53.2359 201.836L53.5359 202.652ZM51.3279 197.804C50.8639 197.804 50.5119 197.956 50.2719 198.26C50.0399 198.556 49.9119 198.976 49.8879 199.52H52.5759C52.5999 199.376 52.6119 199.24 52.6119 199.112C52.6119 198.664 52.4839 198.336 52.2279 198.128C51.9799 197.912 51.6799 197.804 51.3279 197.804ZM58.1308 197.864C57.9068 197.864 57.6428 197.92 57.3388 198.032C57.0428 198.144 56.6828 198.372 56.2588 198.716V203H55.2748V197.06H56.2108V197.888C56.6348 197.528 57.0188 197.28 57.3628 197.144C57.7148 197.008 58.0508 196.94 58.3708 196.94C58.9228 196.94 59.3428 197.116 59.6308 197.468C59.9268 197.812 60.0748 198.304 60.0748 198.944V203H59.0908V199.088C59.0908 198.272 58.7708 197.864 58.1308 197.864ZM65.7422 203V202.172C65.3742 202.524 65.0382 202.772 64.7342 202.916C64.4382 203.052 64.1302 203.12 63.8102 203.12C63.1782 203.12 62.6902 202.88 62.3462 202.4C62.0102 201.92 61.8422 201.248 61.8422 200.384V199.688C61.8422 198.848 62.0502 198.18 62.4662 197.684C62.8902 197.188 63.5022 196.94 64.3022 196.94C64.5342 196.94 64.7662 196.964 64.9982 197.012C65.2302 197.06 65.4622 197.128 65.6942 197.216V194.12H66.6782V203H65.7422ZM62.8622 200.384C62.8622 201.008 62.9582 201.468 63.1502 201.764C63.3502 202.052 63.6462 202.196 64.0382 202.196C64.2702 202.196 64.5102 202.14 64.7582 202.028C65.0062 201.908 65.3182 201.664 65.6942 201.296V198.128C65.4622 198.024 65.2382 197.952 65.0222 197.912C64.8062 197.864 64.5942 197.84 64.3862 197.84C63.8422 197.84 63.4502 198.004 63.2102 198.332C62.9782 198.66 62.8622 199.112 62.8622 199.688V200.384ZM73.1422 203.06C72.7742 203.06 72.4782 202.976 72.2542 202.808C72.0382 202.64 71.8862 202.432 71.7982 202.184C71.4062 202.528 71.0502 202.772 70.7302 202.916C70.4102 203.052 70.0902 203.12 69.7702 203.12C69.2502 203.12 68.8662 202.952 68.6182 202.616C68.3702 202.28 68.2462 201.868 68.2462 201.38C68.2462 201.052 68.3062 200.76 68.4262 200.504C68.5462 200.248 68.7502 200.048 69.0382 199.904C69.3262 199.752 69.7142 199.676 70.2022 199.676C70.4182 199.676 70.6542 199.692 70.9102 199.724C71.1662 199.748 71.4262 199.78 71.6902 199.82V199.016C71.6902 198.568 71.5902 198.264 71.3902 198.104C71.1982 197.936 70.9142 197.852 70.5382 197.852C70.0262 197.852 69.4542 197.992 68.8222 198.272L68.5102 197.456C68.8782 197.288 69.2302 197.16 69.5662 197.072C69.9022 196.984 70.2422 196.94 70.5862 196.94C71.1462 196.94 71.5742 197.032 71.8702 197.216C72.1662 197.4 72.3702 197.644 72.4822 197.948C72.5942 198.252 72.6502 198.584 72.6502 198.944V201.512C72.6502 201.696 72.6862 201.852 72.7582 201.98C72.8302 202.1 72.9742 202.16 73.1902 202.16H73.3222V203.06H73.1422ZM69.2182 201.368C69.2182 201.64 69.2822 201.86 69.4102 202.028C69.5382 202.196 69.7222 202.28 69.9622 202.28C70.1702 202.28 70.4102 202.22 70.6822 202.1C70.9542 201.972 71.2902 201.72 71.6902 201.344V200.588C71.1462 200.5 70.6662 200.456 70.2502 200.456C69.8822 200.456 69.6182 200.532 69.4582 200.684C69.2982 200.836 69.2182 201.064 69.2182 201.368ZM77.9802 202.784C77.5322 203.008 77.0562 203.12 76.5522 203.12C76.1202 203.12 75.7802 203.032 75.5322 202.856C75.2922 202.68 75.1202 202.444 75.0162 202.148C74.9202 201.852 74.8722 201.524 74.8722 201.164V197.924H73.8402V197.06H74.8722V195.404H75.8562V197.06H77.8002V197.924H75.8562V201.128C75.8562 201.544 75.9242 201.832 76.0602 201.992C76.2042 202.144 76.4242 202.22 76.7202 202.22C76.8642 202.22 77.0122 202.204 77.1642 202.172C77.3242 202.132 77.4962 202.068 77.6802 201.98L77.9802 202.784ZM80.3188 195.608H79.2148V194.504H80.3188V195.608ZM80.2588 203H79.2748V197.06H80.2588V203ZM87.0842 199.664V200.384C87.0842 201.232 86.8642 201.9 86.4242 202.388C85.9922 202.876 85.3722 203.12 84.5642 203.12C83.7642 203.12 83.1442 202.876 82.7042 202.388C82.2642 201.9 82.0442 201.232 82.0442 200.384V199.664C82.0442 198.832 82.2602 198.172 82.6922 197.684C83.1322 197.188 83.7562 196.94 84.5642 196.94C85.3722 196.94 85.9922 197.188 86.4242 197.684C86.8642 198.172 87.0842 198.832 87.0842 199.664ZM86.0642 199.664C86.0642 199.096 85.9362 198.652 85.6802 198.332C85.4242 198.004 85.0522 197.84 84.5642 197.84C84.0842 197.84 83.7122 198.004 83.4482 198.332C83.1922 198.652 83.0642 199.096 83.0642 199.664V200.384C83.0642 200.976 83.1922 201.432 83.4482 201.752C83.7122 202.072 84.0842 202.232 84.5642 202.232C85.0522 202.232 85.4242 202.072 85.6802 201.752C85.9362 201.432 86.0642 200.976 86.0642 200.384V199.664ZM91.7284 197.864C91.5044 197.864 91.2404 197.92 90.9364 198.032C90.6404 198.144 90.2804 198.372 89.8564 198.716V203H88.8724V197.06H89.8084V197.888C90.2324 197.528 90.6164 197.28 90.9604 197.144C91.3124 197.008 91.6484 196.94 91.9684 196.94C92.5204 196.94 92.9404 197.116 93.2284 197.468C93.5244 197.812 93.6724 198.304 93.6724 198.944V203H92.6884V199.088C92.6884 198.272 92.3684 197.864 91.7284 197.864Z" fill="black"/>
<path d="M7.316 241.808V245H6.272V236.84H8.828C9.596 236.84 10.188 237.044 10.604 237.452C11.028 237.852 11.24 238.388 11.24 239.06V239.576C11.24 240.056 11.128 240.472 10.904 240.824C10.688 241.176 10.376 241.436 9.968 241.604C10.312 242.156 10.632 242.716 10.928 243.284C11.224 243.852 11.496 244.424 11.744 245H10.544C10.088 243.912 9.556 242.848 8.948 241.808H7.316ZM8.828 237.8H7.316V240.848H8.828C9.236 240.848 9.56 240.736 9.8 240.512C10.04 240.28 10.16 239.968 10.16 239.576V239.06C10.16 238.66 10.04 238.352 9.8 238.136C9.56 237.912 9.236 237.8 8.828 237.8ZM17.571 244.652C17.211 244.828 16.851 244.948 16.491 245.012C16.131 245.084 15.799 245.12 15.495 245.12C14.639 245.12 13.999 244.876 13.575 244.388C13.159 243.9 12.951 243.232 12.951 242.384V241.664C12.951 240.84 13.159 240.18 13.575 239.684C13.999 239.188 14.595 238.94 15.363 238.94C15.771 238.94 16.143 239.024 16.479 239.192C16.823 239.352 17.095 239.6 17.295 239.936C17.503 240.264 17.607 240.688 17.607 241.208C17.607 241.544 17.559 241.928 17.463 242.36H13.923V242.384C13.923 242.992 14.047 243.452 14.295 243.764C14.551 244.076 14.959 244.232 15.519 244.232C15.775 244.232 16.055 244.2 16.359 244.136C16.671 244.072 16.975 243.972 17.271 243.836L17.571 244.652ZM15.363 239.804C14.899 239.804 14.547 239.956 14.307 240.26C14.075 240.556 13.947 240.976 13.923 241.52H16.611C16.635 241.376 16.647 241.24 16.647 241.112C16.647 240.664 16.519 240.336 16.263 240.128C16.015 239.912 15.715 239.804 15.363 239.804ZM24.9379 244.16V245.06H24.6739C24.1379 245.06 23.7659 244.92 23.5579 244.64C23.3499 244.36 23.2459 244 23.2459 243.56V237.128C22.7099 236.976 22.2339 236.9 21.8179 236.9C21.3779 236.9 21.0459 237 20.8219 237.2C20.5979 237.4 20.4859 237.728 20.4859 238.184V239.06H22.3339V239.924H20.4859V245H19.5019V239.924H18.4699V239.06H19.5019V238.196C19.5019 237.804 19.5739 237.444 19.7179 237.116C19.8619 236.78 20.1019 236.512 20.4379 236.312C20.7739 236.104 21.2259 236 21.7939 236C22.1459 236 22.5299 236.044 22.9459 236.132C23.3619 236.22 23.7899 236.364 24.2299 236.564V243.512C24.2299 243.728 24.2659 243.892 24.3379 244.004C24.4099 244.108 24.5459 244.16 24.7459 244.16H24.9379ZM30.7312 244.652C30.3712 244.828 30.0112 244.948 29.6512 245.012C29.2912 245.084 28.9592 245.12 28.6552 245.12C27.7992 245.12 27.1592 244.876 26.7352 244.388C26.3192 243.9 26.1112 243.232 26.1112 242.384V241.664C26.1112 240.84 26.3192 240.18 26.7352 239.684C27.1592 239.188 27.7552 238.94 28.5232 238.94C28.9312 238.94 29.3032 239.024 29.6392 239.192C29.9832 239.352 30.2552 239.6 30.4552 239.936C30.6632 240.264 30.7672 240.688 30.7672 241.208C30.7672 241.544 30.7192 241.928 30.6232 242.36H27.0832V242.384C27.0832 242.992 27.2072 243.452 27.4552 243.764C27.7112 244.076 28.1192 244.232 28.6792 244.232C28.9352 244.232 29.2152 244.2 29.5192 244.136C29.8312 244.072 30.1352 243.972 30.4312 243.836L30.7312 244.652ZM28.5232 239.804C28.0592 239.804 27.7072 239.956 27.4672 240.26C27.2352 240.556 27.1072 240.976 27.0832 241.52H29.7712C29.7952 241.376 29.8072 241.24 29.8072 241.112C29.8072 240.664 29.6792 240.336 29.4232 240.128C29.1752 239.912 28.8752 239.804 28.5232 239.804ZM33.1661 241.676V242.384C33.1661 242.992 33.2781 243.452 33.5021 243.764C33.7261 244.068 34.0821 244.22 34.5701 244.22C35.0501 244.22 35.5661 244.096 36.1181 243.848L36.4181 244.676C35.7621 244.972 35.1261 245.12 34.5101 245.12C33.7421 245.12 33.1581 244.876 32.7581 244.388C32.3581 243.9 32.1581 243.232 32.1581 242.384V241.676C32.1581 240.828 32.3581 240.16 32.7581 239.672C33.1581 239.184 33.7421 238.94 34.5101 238.94C34.7981 238.94 35.0941 238.98 35.3981 239.06C35.7101 239.132 36.0221 239.236 36.3341 239.372L36.0341 240.212C35.7701 240.1 35.5141 240.012 35.2661 239.948C35.0261 239.884 34.7941 239.852 34.5701 239.852C34.0821 239.852 33.7261 240.008 33.5021 240.32C33.2781 240.624 33.1661 241.076 33.1661 241.676ZM41.1247 244.784C40.6767 245.008 40.2007 245.12 39.6967 245.12C39.2647 245.12 38.9247 245.032 38.6767 244.856C38.4367 244.68 38.2647 244.444 38.1607 244.148C38.0647 243.852 38.0167 243.524 38.0167 243.164V239.924H36.9847V239.06H38.0167V237.404H39.0007V239.06H40.9447V239.924H39.0007V243.128C39.0007 243.544 39.0687 243.832 39.2047 243.992C39.3487 244.144 39.5687 244.22 39.8647 244.22C40.0087 244.22 40.1567 244.204 40.3087 244.172C40.4687 244.132 40.6407 244.068 40.8247 243.98L41.1247 244.784ZM43.4633 237.608H42.3593V236.504H43.4633V237.608ZM43.4033 245H42.4193V239.06H43.4033V245ZM49.8688 239.06L47.7688 245H46.8448L44.7208 239.06H45.7408L46.7368 241.952L47.3368 243.764L47.9248 241.952L48.8968 239.06H49.8688ZM55.3757 244.652C55.0157 244.828 54.6557 244.948 54.2957 245.012C53.9357 245.084 53.6037 245.12 53.2997 245.12C52.4437 245.12 51.8037 244.876 51.3797 244.388C50.9637 243.9 50.7557 243.232 50.7557 242.384V241.664C50.7557 240.84 50.9637 240.18 51.3797 239.684C51.8037 239.188 52.3997 238.94 53.1677 238.94C53.5757 238.94 53.9477 239.024 54.2837 239.192C54.6277 239.352 54.8997 239.6 55.0997 239.936C55.3077 240.264 55.4117 240.688 55.4117 241.208C55.4117 241.544 55.3637 241.928 55.2677 242.36H51.7277V242.384C51.7277 242.992 51.8517 243.452 52.0997 243.764C52.3557 244.076 52.7637 244.232 53.3237 244.232C53.5797 244.232 53.8597 244.2 54.1637 244.136C54.4757 244.072 54.7797 243.972 55.0757 243.836L55.3757 244.652ZM53.1677 239.804C52.7037 239.804 52.3517 239.956 52.1117 240.26C51.8797 240.556 51.7517 240.976 51.7277 241.52H54.4157C54.4397 241.376 54.4517 241.24 54.4517 241.112C54.4517 240.664 54.3237 240.336 54.0677 240.128C53.8197 239.912 53.5197 239.804 53.1677 239.804ZM7.1 251.608H5.996V250.504H7.1V251.608ZM4.76 261.676V260.74C5.184 260.74 5.504 260.64 5.72 260.44C5.944 260.24 6.056 259.852 6.056 259.276V253.06H7.04V259.276C7.04 259.74 6.972 260.152 6.836 260.512C6.7 260.872 6.464 261.156 6.128 261.364C5.8 261.572 5.344 261.676 4.76 261.676ZM13.8655 255.664V256.384C13.8655 257.232 13.6455 257.9 13.2055 258.388C12.7735 258.876 12.1535 259.12 11.3455 259.12C10.5455 259.12 9.92547 258.876 9.48547 258.388C9.04547 257.9 8.82547 257.232 8.82547 256.384V255.664C8.82547 254.832 9.04147 254.172 9.47347 253.684C9.91347 253.188 10.5375 252.94 11.3455 252.94C12.1535 252.94 12.7735 253.188 13.2055 253.684C13.6455 254.172 13.8655 254.832 13.8655 255.664ZM12.8455 255.664C12.8455 255.096 12.7175 254.652 12.4615 254.332C12.2055 254.004 11.8335 253.84 11.3455 253.84C10.8655 253.84 10.4935 254.004 10.2295 254.332C9.97347 254.652 9.84547 255.096 9.84547 255.664V256.384C9.84547 256.976 9.97347 257.432 10.2295 257.752C10.4935 258.072 10.8655 258.232 11.3455 258.232C11.8335 258.232 12.2055 258.072 12.4615 257.752C12.7175 257.432 12.8455 256.976 12.8455 256.384V255.664ZM19.3137 259V258.16C18.8977 258.52 18.5257 258.772 18.1977 258.916C17.8697 259.052 17.5417 259.12 17.2137 259.12C16.6857 259.12 16.2817 258.948 16.0017 258.604C15.7217 258.252 15.5817 257.76 15.5817 257.128V253.06H16.5657V256.984C16.5657 257.4 16.6377 257.708 16.7817 257.908C16.9337 258.1 17.1577 258.196 17.4537 258.196C17.6777 258.196 17.9297 258.14 18.2097 258.028C18.4897 257.916 18.8377 257.692 19.2537 257.356V253.06H20.2377V259H19.3137ZM25.4768 253.924C25.1168 253.924 24.7648 253.988 24.4208 254.116C24.0848 254.244 23.7248 254.488 23.3408 254.848V259H22.3568V253.06H23.2928V254.02C23.7008 253.62 24.0728 253.34 24.4088 253.18C24.7528 253.02 25.1088 252.94 25.4768 252.94V253.924ZM29.619 253.864C29.395 253.864 29.131 253.92 28.827 254.032C28.531 254.144 28.171 254.372 27.747 254.716V259H26.763V253.06H27.699V253.888C28.123 253.528 28.507 253.28 28.851 253.144C29.203 253.008 29.539 252.94 29.859 252.94C30.411 252.94 30.831 253.116 31.119 253.468C31.415 253.812 31.563 254.304 31.563 254.944V259H30.579V255.088C30.579 254.272 30.259 253.864 29.619 253.864ZM37.9625 259.06C37.5945 259.06 37.2985 258.976 37.0745 258.808C36.8585 258.64 36.7065 258.432 36.6185 258.184C36.2265 258.528 35.8705 258.772 35.5505 258.916C35.2305 259.052 34.9105 259.12 34.5905 259.12C34.0705 259.12 33.6865 258.952 33.4385 258.616C33.1905 258.28 33.0665 257.868 33.0665 257.38C33.0665 257.052 33.1265 256.76 33.2465 256.504C33.3665 256.248 33.5705 256.048 33.8585 255.904C34.1465 255.752 34.5345 255.676 35.0225 255.676C35.2385 255.676 35.4745 255.692 35.7305 255.724C35.9865 255.748 36.2465 255.78 36.5105 255.82V255.016C36.5105 254.568 36.4105 254.264 36.2105 254.104C36.0185 253.936 35.7345 253.852 35.3585 253.852C34.8465 253.852 34.2745 253.992 33.6425 254.272L33.3305 253.456C33.6985 253.288 34.0505 253.16 34.3865 253.072C34.7225 252.984 35.0625 252.94 35.4065 252.94C35.9665 252.94 36.3945 253.032 36.6905 253.216C36.9865 253.4 37.1905 253.644 37.3025 253.948C37.4145 254.252 37.4705 254.584 37.4705 254.944V257.512C37.4705 257.696 37.5065 257.852 37.5785 257.98C37.6505 258.1 37.7945 258.16 38.0105 258.16H38.1425V259.06H37.9625ZM34.0385 257.368C34.0385 257.64 34.1025 257.86 34.2305 258.028C34.3585 258.196 34.5425 258.28 34.7825 258.28C34.9905 258.28 35.2305 258.22 35.5025 258.1C35.7745 257.972 36.1105 257.72 36.5105 257.344V256.588C35.9665 256.5 35.4865 256.456 35.0705 256.456C34.7025 256.456 34.4385 256.532 34.2785 256.684C34.1185 256.836 34.0385 257.064 34.0385 257.368ZM39.5245 257.56V250.12H40.5085V257.512C40.5085 257.728 40.5405 257.892 40.6045 258.004C40.6765 258.108 40.8165 258.16 41.0245 258.16H41.2165V259.06H40.9405C40.4125 259.06 40.0445 258.92 39.8365 258.64C39.6285 258.36 39.5245 258 39.5245 257.56ZM43.7445 251.608H42.6405V250.504H43.7445V251.608ZM43.6845 259H42.7005V253.06H43.6845V259ZM48.662 253.864C48.438 253.864 48.174 253.92 47.87 254.032C47.574 254.144 47.214 254.372 46.79 254.716V259H45.806V253.06H46.742V253.888C47.166 253.528 47.55 253.28 47.894 253.144C48.246 253.008 48.582 252.94 48.902 252.94C49.454 252.94 49.874 253.116 50.162 253.468C50.458 253.812 50.606 254.304 50.606 254.944V259H49.622V255.088C49.622 254.272 49.302 253.864 48.662 253.864ZM57.4135 259.744C57.4135 260.328 57.1735 260.796 56.6935 261.148C56.2215 261.5 55.5695 261.676 54.7375 261.676C54.3215 261.676 53.8855 261.62 53.4295 261.508C52.9815 261.396 52.5575 261.216 52.1575 260.968L52.4935 260.2C52.8935 260.424 53.2775 260.58 53.6455 260.668C54.0215 260.764 54.3855 260.812 54.7375 260.812C55.2815 260.812 55.7015 260.724 55.9975 260.548C56.2935 260.372 56.4415 260.136 56.4415 259.84C56.4415 259.624 56.3695 259.456 56.2255 259.336C56.0815 259.224 55.8495 259.168 55.5295 259.168H54.1495C53.6295 259.168 53.2535 259.044 53.0215 258.796C52.7895 258.548 52.6735 258.276 52.6735 257.98C52.6735 257.772 52.7215 257.568 52.8175 257.368C52.9135 257.16 53.0495 256.956 53.2255 256.756C52.9455 256.588 52.7215 256.36 52.5535 256.072C52.3855 255.776 52.3015 255.42 52.3015 255.004C52.3015 254.548 52.3975 254.168 52.5895 253.864C52.7895 253.56 53.0535 253.332 53.3815 253.18C53.7095 253.02 54.0775 252.94 54.4855 252.94H54.6895C54.9695 252.94 55.2255 252.98 55.4575 253.06H57.5935V253.936L56.2975 253.756C56.4655 253.9 56.6015 254.08 56.7055 254.296C56.8095 254.504 56.8615 254.76 56.8615 255.064C56.8615 255.496 56.7615 255.86 56.5615 256.156C56.3695 256.452 56.1095 256.68 55.7815 256.84C55.4535 256.992 55.0895 257.068 54.6895 257.068H54.4855C54.3815 257.068 54.2815 257.064 54.1855 257.056C54.0895 257.04 53.9935 257.024 53.8975 257.008C53.6655 257.264 53.5495 257.516 53.5495 257.764C53.5495 258.084 53.7735 258.244 54.2215 258.244H55.5655C56.1415 258.244 56.5935 258.372 56.9215 258.628C57.2495 258.884 57.4135 259.256 57.4135 259.744ZM54.6895 256.216C55.0015 256.216 55.2775 256.116 55.5175 255.916C55.7575 255.716 55.8775 255.412 55.8775 255.004C55.8775 254.604 55.7575 254.304 55.5175 254.104C55.2775 253.896 55.0015 253.792 54.6895 253.792H54.4855C54.1655 253.792 53.8855 253.896 53.6455 254.104C53.4055 254.304 53.2855 254.604 53.2855 255.004C53.2855 255.412 53.4055 255.716 53.6455 255.916C53.8855 256.116 54.1655 256.216 54.4855 256.216H54.6895Z" fill="black"/>
<path d="M132.88 19V15.364H129.316V19H128.272V10.84H129.316V14.38H132.88V10.84H133.924V19H132.88ZM141.023 18.028V19H136.463V10.84H140.903V11.824H137.507V14.38H140.543V15.364H137.507V18.028H141.023ZM147.158 19L146.546 17.104H143.45L142.838 19H141.818L144.53 10.84H145.514L148.238 19H147.158ZM144.206 14.752L143.75 16.156H146.234L145.778 14.752L144.998 12.232L144.206 14.752ZM149.764 19V10.84H152.296C153.232 10.84 153.952 11.124 154.456 11.692C154.96 12.252 155.212 13.028 155.212 14.02V15.808C155.212 16.808 154.96 17.592 154.456 18.16C153.952 18.72 153.232 19 152.296 19H149.764ZM152.272 11.824H150.808V18.028H152.272C153.512 18.028 154.132 17.288 154.132 15.808V14.02C154.132 12.556 153.512 11.824 152.272 11.824ZM159.073 18.184C159.577 18.184 159.965 18.076 160.237 17.86C160.509 17.636 160.645 17.312 160.645 16.888C160.645 16.536 160.549 16.24 160.357 16C160.173 15.76 159.869 15.576 159.445 15.448L158.473 15.16C157.865 14.976 157.417 14.7 157.129 14.332C156.841 13.956 156.697 13.496 156.697 12.952C156.697 12.536 156.777 12.16 156.937 11.824C157.105 11.488 157.369 11.22 157.729 11.02C158.097 10.82 158.577 10.72 159.169 10.72C159.529 10.72 159.901 10.764 160.285 10.852C160.669 10.932 161.057 11.064 161.449 11.248L161.113 12.148C160.729 11.98 160.381 11.86 160.069 11.788C159.765 11.708 159.473 11.668 159.193 11.668C158.737 11.668 158.381 11.764 158.125 11.956C157.877 12.14 157.753 12.448 157.753 12.88C157.753 13.192 157.837 13.456 158.005 13.672C158.173 13.88 158.473 14.052 158.905 14.188L159.877 14.476C161.093 14.836 161.701 15.612 161.701 16.804C161.701 17.492 161.493 18.052 161.077 18.484C160.661 18.908 159.993 19.12 159.073 19.12C158.697 19.12 158.297 19.076 157.873 18.988C157.457 18.892 157.025 18.744 156.577 18.544L156.901 17.656C157.325 17.848 157.705 17.984 158.041 18.064C158.385 18.144 158.729 18.184 159.073 18.184ZM163.475 19V10.84H166.019C166.803 10.84 167.399 11.048 167.807 11.464C168.223 11.872 168.431 12.42 168.431 13.108V13.744C168.431 14.432 168.223 14.984 167.807 15.4C167.399 15.816 166.803 16.024 166.019 16.024H164.519V19H163.475ZM166.019 11.824H164.519V15.052H166.019C166.451 15.052 166.779 14.936 167.003 14.704C167.235 14.472 167.351 14.152 167.351 13.744V13.108C167.351 12.708 167.235 12.396 167.003 12.172C166.779 11.94 166.451 11.824 166.019 11.824ZM174.065 19L173.453 17.104H170.357L169.745 19H168.725L171.437 10.84H172.421L175.145 19H174.065ZM171.113 14.752L170.657 16.156H173.141L172.685 14.752L171.905 12.232L171.113 14.752ZM177.144 15.82C177.144 16.572 177.292 17.152 177.588 17.56C177.892 17.96 178.356 18.16 178.98 18.16C179.252 18.16 179.52 18.128 179.784 18.064C180.048 18 180.364 17.888 180.732 17.728L181.08 18.616C180.688 18.792 180.316 18.92 179.964 19C179.612 19.08 179.272 19.12 178.944 19.12C178 19.12 177.284 18.824 176.796 18.232C176.308 17.64 176.064 16.836 176.064 15.82V14.02C176.064 13.004 176.308 12.2 176.796 11.608C177.284 11.016 178 10.72 178.944 10.72C179.272 10.72 179.612 10.76 179.964 10.84C180.324 10.92 180.688 11.048 181.056 11.224L180.72 12.124C180.072 11.836 179.492 11.692 178.98 11.692C178.356 11.692 177.892 11.892 177.588 12.292C177.292 12.692 177.144 13.268 177.144 14.02V15.82ZM187.348 18.028V19H182.788V10.84H187.228V11.824H183.832V14.38H186.868V15.364H183.832V18.028H187.348Z" fill="black"/>
<path d="M214.232 14.296L214.808 17.596L216.692 10.84H217.664L219.548 17.56L220.148 14.296L220.856 10.84H221.888L220.088 19H219.032L217.16 12.328L215.288 19H214.22L212.432 10.84H213.524L214.232 14.296ZM224.64 19H223.596V10.84H224.64V19ZM227.194 19V10.84H229.726C230.662 10.84 231.382 11.124 231.886 11.692C232.39 12.252 232.642 13.028 232.642 14.02V15.808C232.642 16.808 232.39 17.592 231.886 18.16C231.382 18.72 230.662 19 229.726 19H227.194ZM229.702 11.824H228.238V18.028H229.702C230.942 18.028 231.562 17.288 231.562 15.808V14.02C231.562 12.556 230.942 11.824 229.702 11.824ZM239.995 18.436C239.763 18.588 239.431 18.74 238.999 18.892C238.575 19.044 238.063 19.12 237.463 19.12C236.815 19.12 236.267 18.984 235.819 18.712C235.379 18.432 235.043 18.044 234.811 17.548C234.587 17.044 234.475 16.464 234.475 15.808V14.02C234.475 12.996 234.731 12.192 235.243 11.608C235.763 11.016 236.515 10.72 237.499 10.72C237.859 10.72 238.235 10.76 238.627 10.84C239.027 10.92 239.423 11.052 239.815 11.236L239.479 12.136C238.759 11.84 238.103 11.692 237.511 11.692C236.855 11.692 236.363 11.892 236.035 12.292C235.715 12.684 235.555 13.26 235.555 14.02V15.808C235.555 16.528 235.719 17.1 236.047 17.524C236.375 17.948 236.871 18.16 237.535 18.16C237.791 18.16 238.051 18.132 238.315 18.076C238.587 18.02 238.827 17.944 239.035 17.848V15.652H237.511V14.728H239.995V18.436ZM246.637 18.028V19H242.077V10.84H246.517V11.824H243.121V14.38H246.157V15.364H243.121V18.028H246.637ZM247.336 11.824V10.84H253.132V11.824H250.756V19H249.712V11.824H247.336ZM258.092 19L257.48 17.104H254.384L253.772 19H252.752L255.464 10.84H256.448L259.172 19H258.092ZM255.14 14.752L254.684 16.156H257.168L256.712 14.752L255.932 12.232L255.14 14.752ZM260.698 19V10.84H263.098C263.882 10.84 264.458 11.032 264.826 11.416C265.202 11.792 265.39 12.3 265.39 12.94V13.204C265.39 13.556 265.31 13.868 265.15 14.14C264.99 14.412 264.758 14.628 264.454 14.788C264.878 14.924 265.198 15.148 265.414 15.46C265.638 15.764 265.75 16.132 265.75 16.564V16.828C265.75 17.484 265.558 18.012 265.174 18.412C264.798 18.804 264.206 19 263.398 19H260.698ZM263.098 11.8H261.742V14.38H263.098C263.498 14.38 263.798 14.28 263.998 14.08C264.206 13.872 264.31 13.588 264.31 13.228V12.94C264.31 12.588 264.206 12.312 263.998 12.112C263.798 11.904 263.498 11.8 263.098 11.8ZM263.398 15.34H261.742V18.052H263.398C263.822 18.052 264.138 17.944 264.346 17.728C264.562 17.512 264.67 17.212 264.67 16.828V16.54C264.67 16.172 264.562 15.88 264.346 15.664C264.138 15.448 263.822 15.34 263.398 15.34ZM272.181 18.028V19H267.717V10.84H268.761V18.028H272.181ZM278.348 18.028V19H273.788V10.84H278.228V11.824H274.832V14.38H277.868V15.364H274.832V18.028H278.348Z" fill="black"/>
<path d="M304.98 15.82C304.98 16.572 305.128 17.152 305.424 17.56C305.728 17.96 306.192 18.16 306.816 18.16C307.088 18.16 307.356 18.128 307.62 18.064C307.884 18 308.2 17.888 308.568 17.728L308.916 18.616C308.524 18.792 308.152 18.92 307.8 19C307.448 19.08 307.108 19.12 306.78 19.12C305.836 19.12 305.12 18.824 304.632 18.232C304.144 17.64 303.9 16.836 303.9 15.82V14.02C303.9 13.004 304.144 12.2 304.632 11.608C305.12 11.016 305.836 10.72 306.78 10.72C307.108 10.72 307.448 10.76 307.8 10.84C308.16 10.92 308.524 11.048 308.892 11.224L308.556 12.124C307.908 11.836 307.328 11.692 306.816 11.692C306.192 11.692 305.728 11.892 305.424 12.292C305.128 12.692 304.98 13.268 304.98 14.02V15.82ZM314.944 19L314.332 17.104H311.236L310.624 19H309.604L312.316 10.84H313.3L316.024 19H314.944ZM311.992 14.752L311.536 16.156H314.02L313.564 14.752L312.784 12.232L311.992 14.752ZM322.013 18.028V19H317.549V10.84H318.593V18.028H322.013ZM324.844 10.84L327.328 16.888L329.824 10.84H331.012V19H329.992V15.508L330.124 12.364L327.784 18.04H326.8L324.508 12.34L324.64 15.508V19H323.62V10.84H324.844Z" fill="black"/>
<path d="M358.272 12V3.84H360.804C361.74 3.84 362.46 4.124 362.964 4.692C363.468 5.252 363.72 6.028 363.72 7.02V8.808C363.72 9.808 363.468 10.592 362.964 11.16C362.46 11.72 361.74 12 360.804 12H358.272ZM360.78 4.824H359.316V11.028H360.78C362.02 11.028 362.64 10.288 362.64 8.808V7.02C362.64 5.556 362.02 4.824 360.78 4.824ZM370.473 11.028V12H365.913V3.84H370.353V4.824H366.957V7.38H369.993V8.364H366.957V11.028H370.473ZM376.848 11.028V12H372.288V3.84H376.728V4.824H373.332V7.38H376.368V8.364H373.332V11.028H376.848ZM378.663 12V3.84H381.207C381.991 3.84 382.587 4.048 382.995 4.464C383.411 4.872 383.619 5.42 383.619 6.108V6.744C383.619 7.432 383.411 7.984 382.995 8.4C382.587 8.816 381.991 9.024 381.207 9.024H379.707V12H378.663ZM381.207 4.824H379.707V8.052H381.207C381.639 8.052 381.967 7.936 382.191 7.704C382.423 7.472 382.539 7.152 382.539 6.744V6.108C382.539 5.708 382.423 5.396 382.191 5.172C381.967 4.94 381.639 4.824 381.207 4.824ZM359.232 21.296L359.808 24.596L361.692 17.84H362.664L364.548 24.56L365.148 21.296L365.856 17.84H366.888L365.088 26H364.032L362.16 19.328L360.288 26H359.22L357.432 17.84H358.524L359.232 21.296ZM369.64 26H368.596V17.84H369.64V26ZM371.078 18.824V17.84H376.874V18.824H374.498V26H373.454V18.824H371.078ZM382.907 26V22.364H379.343V26H378.299V17.84H379.343V21.38H382.907V17.84H383.951V26H382.907ZM387.535 26H386.491V17.84H387.535V26ZM390.088 26V17.84H391.18C391.908 18.88 392.576 19.928 393.184 20.984C393.8 22.032 394.376 23.128 394.912 24.272L394.792 21.152V17.84H395.812V26H394.72C394.16 24.832 393.58 23.696 392.98 22.592C392.388 21.48 391.74 20.396 391.036 19.34L391.108 22.664V26H390.088Z" fill="#7BAE74"/>
<line y1="35.5" x2="423.105" y2="35.5" stroke="black"/>
<line x1="5" y1="81.5" x2="428.105" y2="81.5" stroke="black"/>
<line x1="5" y1="127.5" x2="428.105" y2="127.5" stroke="black"/>
<line x1="5" y1="170.5" x2="428.105" y2="170.5" stroke="black"/>
<line x1="5" y1="217.5" x2="428.105" y2="217.5" stroke="black"/>
<line x1="169.355" y1="70.5702" x2="143.937" y2="45.0587" stroke="#E3A2A2" stroke-width="3"/>
<line y1="-1.5" x2="36.0126" y2="-1.5" transform="matrix(0.705806 -0.708405 -0.708405 -0.705806 145 69.5115)" stroke="#E3A2A2" stroke-width="3"/>
<line x1="169.355" y1="120.57" x2="143.937" y2="95.0587" stroke="#E3A2A2" stroke-width="3"/>
<line y1="-1.5" x2="36.0126" y2="-1.5" transform="matrix(0.705806 -0.708405 -0.708405 -0.705806 145 119.511)" stroke="#E3A2A2" stroke-width="3"/>
<line x1="247.355" y1="118.57" x2="221.937" y2="93.0587" stroke="#E3A2A2" stroke-width="3"/>
<line y1="-1.5" x2="36.0126" y2="-1.5" transform="matrix(0.705806 -0.708405 -0.708405 -0.705806 223 117.511)" stroke="#E3A2A2" stroke-width="3"/>
<line x1="327.355" y1="120.57" x2="301.937" y2="95.0587" stroke="#E3A2A2" stroke-width="3"/>
<line y1="-1.5" x2="36.0126" y2="-1.5" transform="matrix(0.705806 -0.708405 -0.708405 -0.705806 303 119.511)" stroke="#E3A2A2" stroke-width="3"/>
<line x1="169.355" y1="161.57" x2="143.937" y2="136.059" stroke="#E3A2A2" stroke-width="3"/>
<line y1="-1.5" x2="36.0126" y2="-1.5" transform="matrix(0.705806 -0.708405 -0.708405 -0.705806 145 160.511)" stroke="#E3A2A2" stroke-width="3"/>
<line x1="247.355" y1="161.57" x2="221.937" y2="136.059" stroke="#E3A2A2" stroke-width="3"/>
<line y1="-1.5" x2="36.0126" y2="-1.5" transform="matrix(0.705806 -0.708405 -0.708405 -0.705806 223 160.511)" stroke="#E3A2A2" stroke-width="3"/>
<line x1="245.355" y1="205.57" x2="219.937" y2="180.059" stroke="#E3A2A2" stroke-width="3"/>
<line y1="-1.5" x2="36.0126" y2="-1.5" transform="matrix(0.705806 -0.708405 -0.708405 -0.705806 221 204.511)" stroke="#E3A2A2" stroke-width="3"/>
<line x1="169.355" y1="258.57" x2="143.937" y2="233.059" stroke="#E3A2A2" stroke-width="3"/>
<line y1="-1.5" x2="36.0126" y2="-1.5" transform="matrix(0.705806 -0.708405 -0.708405 -0.705806 145 257.511)" stroke="#E3A2A2" stroke-width="3"/>
<line x1="327.355" y1="160.57" x2="301.937" y2="135.059" stroke="#E3A2A2" stroke-width="3"/>
<line y1="-1.5" x2="36.0126" y2="-1.5" transform="matrix(0.705806 -0.708405 -0.708405 -0.705806 303 159.511)" stroke="#E3A2A2" stroke-width="3"/>
<rect x="225.24" y="54.2825" width="18.365" height="3.1446" rx="1" transform="rotate(45.415 225.24 54.2825)" fill="#7BAE74"/>
<rect x="258.42" y="48.2864" width="30.6188" height="3.1446" rx="1" transform="rotate(136.639 258.42 48.2864)" fill="#7BAE74"/>
<rect x="305.24" y="54.2825" width="18.365" height="3.1446" rx="1" transform="rotate(45.415 305.24 54.2825)" fill="#7BAE74"/>
<rect x="338.42" y="48.2864" width="30.6188" height="3.1446" rx="1" transform="rotate(136.639 338.42 48.2864)" fill="#7BAE74"/>
<rect x="359.24" y="54.2825" width="18.365" height="3.1446" rx="1" transform="rotate(45.415 359.24 54.2825)" fill="#7BAE74"/>
<rect x="392.42" y="48.2864" width="30.6188" height="3.1446" rx="1" transform="rotate(136.639 392.42 48.2864)" fill="#7BAE74"/>
<rect x="359.24" y="104.282" width="18.365" height="3.1446" rx="1" transform="rotate(45.415 359.24 104.282)" fill="#7BAE74"/>
<rect x="392.42" y="98.2864" width="30.6188" height="3.1446" rx="1" transform="rotate(136.639 392.42 98.2864)" fill="#7BAE74"/>
<rect x="359.24" y="145.282" width="18.365" height="3.1446" rx="1" transform="rotate(45.415 359.24 145.282)" fill="#7BAE74"/>
<rect x="392.42" y="139.286" width="30.6188" height="3.1446" rx="1" transform="rotate(136.639 392.42 139.286)" fill="#7BAE74"/>
<rect x="359.24" y="185.282" width="18.365" height="3.1446" rx="1" transform="rotate(45.415 359.24 185.282)" fill="#7BAE74"/>
<rect x="392.42" y="179.286" width="30.6188" height="3.1446" rx="1" transform="rotate(136.639 392.42 179.286)" fill="#7BAE74"/>
<rect x="359.24" y="240.282" width="18.365" height="3.1446" rx="1" transform="rotate(45.415 359.24 240.282)" fill="#7BAE74"/>
<rect x="392.42" y="234.286" width="30.6188" height="3.1446" rx="1" transform="rotate(136.639 392.42 234.286)" fill="#7BAE74"/>
</svg>
